<svg width="16" height="16" viewBox="0 0 16 16" fill="none" xmlns="http://www.w3.org/2000/svg">
<circle cx="8" cy="8" r="5.5" stroke="black"/>
<path d="M5.64046 7.68763C5.46796 7.472 5.15331 7.43704 4.93768 7.60954C4.72205 7.78204 4.68708 8.09669 4.85959 8.31232L5.25002 7.99998L5.64046 7.68763ZM11.1447 6.30697L11.4516 5.91229L10.6623 5.29835L10.3553 5.69303L10.75 6L11.1447 6.30697ZM7.05203 10.2525L6.66159 10.5649L7.05203 10.2525ZM5.25002 7.99998L4.85959 8.31232L6.66159 10.5649L7.05203 10.2525L7.44246 9.94017L5.64046 7.68763L5.25002 7.99998ZM7.44458 10.2498L7.83926 10.5568L11.1447 6.30697L10.75 6L10.3553 5.69303L7.04991 9.94286L7.44458 10.2498ZM7.05203 10.2525L6.66159 10.5649C6.96447 10.9435 7.54159 10.9395 7.83926 10.5568L7.44458 10.2498L7.04991 9.94286C7.14913 9.81529 7.3415 9.81397 7.44246 9.94017L7.05203 10.2525Z" fill="black"/>
</svg>
