<svg width="1728" height="465" viewBox="0 0 1728 465" fill="none" xmlns="http://www.w3.org/2000/svg">
<path d="M581 250.156C444.103 373.191 146.5 221 0 313.737V465H1920V71.0378C1881.25 71.0378 1846.41 39.0523 1807.66 39.0523C1764.32 39.0523 1712.46 15.2582 1698.23 2.77603C1684.01 -9.70611 1628.57 21.1092 1570.57 71.0378C1512.58 120.966 1508.2 71.0378 1473.91 71.0378C1393.14 71.0378 1329.11 2.77607 1290.81 2.77607C1212 2.77607 1144.73 125.944 1071.05 194.206C997.37 262.468 965.799 210.759 880.813 250.156C795.827 289.553 658.397 180.595 581 250.156Z" fill="#E7EAE9"/>
</svg>
