<svg width="1728" height="425" viewBox="0 0 1728 425" fill="none" xmlns="http://www.w3.org/2000/svg">
<path opacity="0.7" d="M237 244C173.5 214.5 94.5 228.637 0 286.749V425H1920V64.927C1869.58 64.927 1824.26 35.693 1773.84 35.693C1717.45 35.693 1649.99 13.9456 1631.48 2.53723C1612.97 -8.87117 1540.84 19.2934 1465.39 64.927C1389.94 110.561 1384.24 64.927 1339.63 64.927C1234.54 64.927 1151.24 2.53726 1101.41 2.53726C998.881 2.53726 911.358 115.11 815.5 177.5C719.642 239.89 678.568 192.629 568 228.637C457.432 264.645 356.292 299.419 237 244Z" fill="white"/>
</svg>
