<svg width="114" height="114" viewBox="0 0 114 114" fill="none" xmlns="http://www.w3.org/2000/svg">
<circle cx="31.8853" cy="31.8843" r="10.6284" stroke="black" stroke-width="7.08562"/>
<path d="M70.856 72.6327C70.856 71.6544 71.649 70.8613 72.6274 70.8613H90.3414C91.3197 70.8613 92.1128 71.6544 92.1128 72.6327V92.1182H72.6274C71.649 92.1182 70.856 91.3251 70.856 90.3468V72.6327Z" stroke="black" stroke-width="7.08562"/>
<path d="M31.8853 56.688V72.6306C31.8853 79.4789 37.4368 85.0305 44.2851 85.0305C51.1333 85.0305 56.6849 79.4789 56.6849 72.6306V37.2026C56.6849 30.3543 62.2365 24.8027 69.0847 24.8027C75.933 24.8027 81.4846 30.3543 81.4846 37.2026V53.1452" stroke="black" stroke-width="7.08562"/>
<path d="M94.6191 48.5602L97.1244 46.0552L92.1143 41.0447L89.609 43.5497L92.1141 46.055L94.6191 48.5602ZM73.361 43.5497C71.9775 42.1662 69.7343 42.1661 68.3507 43.5496C66.9672 44.9331 66.9671 47.1763 68.3506 48.5599L70.8558 46.0548L73.361 43.5497ZM92.1141 46.055L89.609 43.5497L80.2318 52.9261L82.7369 55.4313L85.2419 57.9366L94.6191 48.5602L92.1141 46.055ZM80.2317 55.4312L82.7369 52.9262L73.361 43.5497L70.8558 46.0548L68.3506 48.5599L77.7265 57.9363L80.2317 55.4312ZM82.7369 55.4313L80.2318 52.9261C80.9236 52.2343 82.0452 52.2344 82.7369 52.9262L80.2317 55.4312L77.7265 57.9363C79.8018 60.0117 83.1665 60.0118 85.2419 57.9366L82.7369 55.4313Z" fill="black"/>
</svg>
