<svg width="146" height="48" viewBox="0 0 146 48" fill="none" xmlns="http://www.w3.org/2000/svg">
<g clip-path="url(#clip0_147_202)">
<path fill-rule="evenodd" clip-rule="evenodd" d="M79.95 18.4111C84.7933 17.9728 88.405 21.1973 89.3848 25.8436C90.2238 29.8236 89.5356 34.5731 86.5516 37.4992C84.0974 39.8488 80.5436 40.6021 77.3357 39.5042C75.8556 38.9757 74.7698 38.0762 73.7868 36.7033H73.7864L73.7761 47.9942L70.0563 48.0005L70.0571 26.6394L69.8921 18.8099L73.2233 18.8073L73.4809 22.4144C74.9417 19.9536 77.2424 18.6565 79.95 18.4111ZM85.6498 26.7018C84.9485 23.3831 82.4383 20.9545 78.9886 21.4265C76.4873 21.7688 74.5451 23.6734 74.0071 26.1212L73.7846 27.4282L73.7738 31.0995C73.7635 34.6161 76.6605 37.3292 80.1739 37.0191C85.1199 36.5826 86.5718 31.0628 85.6498 26.7018Z" fill="black"/>
<path fill-rule="evenodd" clip-rule="evenodd" d="M104.089 18.4192C109.013 17.9194 112.701 21.2417 113.644 25.9817C114.464 30.1044 113.671 35.0042 110.397 37.846C107.949 39.9336 104.59 40.542 101.554 39.5024C100.095 38.9771 99.0287 38.108 98.0224 36.7248L98.0085 47.9937L94.2837 48L94.2851 26.7287L94.1236 18.8063L97.453 18.8081L97.7061 22.4203C99.1364 19.985 101.421 18.6897 104.089 18.4192ZM104.005 21.3727C101.571 21.3686 99.407 22.8914 98.5312 25.1728C98.2835 25.8184 98.0413 26.5564 98.0368 27.2505L98.0116 31.2068C97.995 33.8023 99.7309 36.1335 102.243 36.8132C105.608 37.724 108.571 35.9248 109.621 32.5743V32.5747C110.56 29.5746 110.3 25.5663 108.167 23.2045C107.087 22.0089 105.639 21.3754 104.005 21.3727Z" fill="black"/>
<path d="M21.8328 10.914C23.5956 10.2563 25.3902 10.1598 27.2391 10.4963C29.8211 10.9661 32.0447 12.3529 33.5625 14.5378C31.863 15.6128 30.5489 17.0687 29.7233 18.8862C28.6394 21.4045 28.6825 24.232 29.8553 26.713C30.8809 28.767 32.567 30.2879 34.6703 31.2552C33.8313 33.927 32.5373 36.2681 30.9172 38.4445C30.1357 39.4944 29.3662 40.4527 28.3684 41.2782C26.3674 42.8992 24.1277 42.7942 21.8539 41.6959C19.555 40.5855 17.0044 40.5447 14.6633 41.5757L12.4819 42.3851L12.4824 42.3859C10.8201 42.84 9.21391 42.4268 7.96082 41.3294L6.48428 39.8533C5.48692 38.6222 4.54832 37.431 3.72145 36.0599C1.06586 31.6559 -0.495038 25.9086 0.142053 20.7795C0.383431 18.8368 0.978837 17.0328 2.00446 15.3862C3.67077 12.7118 6.34522 10.8996 9.48266 10.4959C10.8569 10.3191 12.149 10.4609 13.4295 10.9427L16.3579 12.0451C17.2076 12.365 18.0587 12.3228 18.8995 12.0088L21.8328 10.914Z" fill="black"/>
<path fill-rule="evenodd" clip-rule="evenodd" d="M132.066 19.5274C133.814 18.543 135.778 18.25 137.758 18.4384C143.544 18.9885 145.742 24.4765 145.154 29.8496L130.568 29.8514C130.607 32.6649 131.669 35.1953 134.278 36.3636C135.432 36.88 136.639 37.0658 137.968 37.0326V37.0317C139.89 37.024 141.66 36.7401 143.421 35.9724L144.098 38.694C141.275 39.8434 138.261 40.236 135.273 39.8529C131.476 39.3665 128.527 36.889 127.482 33.1984C126.099 28.3143 127.418 22.1448 132.066 19.5274ZM136.838 21.0913C133.158 20.8621 131.017 23.6994 130.61 27.1608L141.602 27.1594C141.612 25.9404 141.417 24.8794 140.948 23.8816C140.214 22.1829 138.662 21.2049 136.838 21.0913Z" fill="black"/>
<path d="M122.281 39.5146L118.517 39.5356L118.517 9.13152L122.281 9.12434L122.281 39.5146Z" fill="black"/>
<path fill-rule="evenodd" clip-rule="evenodd" d="M65.9012 39.5289H61.9149L58.8381 30.4526L48.5912 30.4486L45.596 39.5321L41.7348 39.5267L51.5833 10.6726L56.0411 10.6682L65.9012 39.5289ZM52.3177 18.7969L49.3588 27.5305L58.0937 27.5269L55.0236 18.5964L53.6848 13.9124L52.3177 18.7969Z" fill="black"/>
<path d="M25.7855 0C25.9977 1.7031 25.6249 3.31918 24.8896 4.815C23.8482 6.93265 22.1348 8.59942 19.883 9.43257L19.8826 9.43301C18.9749 9.76905 18.1148 9.93324 17.2256 9.78519C17.0735 8.62632 17.2391 7.57646 17.6132 6.50732C18.8556 2.95801 22.0042 0.392583 25.7855 0Z" fill="black"/>
</g>
<defs>
<clipPath id="clip0_147_202">
<rect width="145.246" height="48" fill="white"/>
</clipPath>
</defs>
</svg>
