<svg width="276" height="34" viewBox="0 0 276 34" fill="none" xmlns="http://www.w3.org/2000/svg">
<g clip-path="url(#clip0_147_213)">
<path d="M168.081 22.9373L174.901 7.03604H177.617L166.006 33.999H163.302L166.788 26.3371L158.985 7.03604H161.7L168.081 22.9373Z" fill="black"/>
<path d="M14.6003 0C22.6768 0.000198367 29.2115 6.50473 29.2117 14.544C29.2117 22.5834 22.6651 29.0888 14.6003 29.089C6.53536 29.089 0 22.5718 0 14.544C0.000171471 9.16097 2.94122 4.46247 7.29362 1.94792V14.544C7.29362 18.5579 10.5678 21.8165 14.6003 21.8165C18.6326 21.8163 21.906 18.5577 21.906 14.544C21.9058 10.5304 18.6325 7.27269 14.6003 7.27249C12.9636 7.27249 11.4451 7.81534 10.2235 8.72437V0.673118C11.5993 0.236312 13.0703 0 14.6003 0Z" fill="black"/>
<path d="M47.7119 27.4711H47.7008L47.7048 27.4701C47.7072 27.4701 47.7095 27.4711 47.7119 27.4711Z" fill="black"/>
<path fill-rule="evenodd" clip-rule="evenodd" d="M93.3461 6.52794C97.114 6.53052 100.041 8.57078 101.214 9.96295C103.669 12.8435 103.93 15.3235 103.93 19.7388V26.9992H101.368V23.4575H101.297C99.0195 26.7036 95.6514 27.4711 93.493 27.4711C86.9345 27.471 82.8309 22.3594 82.8307 17.0352C82.8307 11.311 87.4419 6.53047 93.3461 6.52794ZM93.2676 8.90045C88.6896 8.90054 85.2737 12.6908 85.2737 17.0352C85.2739 21.6628 88.9743 25.0985 93.2676 25.0985C98.1421 25.0985 101.404 21.4856 101.404 17.0704C101.404 12.0413 97.6321 8.90045 93.2676 8.90045Z" fill="black"/>
<path d="M148.975 27.4711H148.964L148.968 27.4701C148.971 27.4701 148.973 27.4711 148.975 27.4711Z" fill="black"/>
<path fill-rule="evenodd" clip-rule="evenodd" d="M39.6828 10.5425H39.7542C42.0313 7.29605 45.3994 6.52898 47.5579 6.52894C54.1167 6.52894 58.2202 11.6405 58.2202 16.9648C58.2201 22.689 53.6091 27.4677 47.7048 27.4701C43.9369 27.4674 41.0101 25.4285 39.8367 24.0481C37.3818 21.1677 37.1211 18.6883 37.1211 14.2733V0H39.6828V10.5425ZM47.7833 8.90146C42.9088 8.90152 39.6475 12.5143 39.6475 16.9296C39.6477 21.9585 43.4189 25.0985 47.7833 25.0985C52.3613 25.0985 55.7771 21.3091 55.7772 16.9648C55.7772 12.337 52.0767 8.90146 47.7833 8.90146Z" fill="black"/>
<path fill-rule="evenodd" clip-rule="evenodd" d="M140.946 10.5425H141.018C143.283 7.29605 146.663 6.52898 148.821 6.52894C155.38 6.52894 159.484 11.6405 159.484 16.9648C159.484 22.689 154.873 27.4677 148.968 27.4701C145.2 27.4674 142.274 25.4285 141.1 24.0481C138.645 21.1677 138.385 18.6883 138.385 14.2733V0H140.946V10.5425ZM149.047 8.90146C144.172 8.90152 140.911 12.5143 140.911 16.9296C140.911 21.9585 144.682 25.0985 149.047 25.0985C153.625 25.0985 157.041 21.3091 157.041 16.9648C157.041 12.337 153.34 8.90146 149.047 8.90146Z" fill="black"/>
<path fill-rule="evenodd" clip-rule="evenodd" d="M70.3886 6.51687C76.2237 6.5171 81.0146 11.2278 81.0146 17.2012C81.0146 17.4608 80.9794 17.6732 80.9794 17.9327H62.5134V17.9448C62.7744 21.9232 66.3202 25.0985 70.4238 25.0985C74.0886 25.0985 76.6981 22.9029 77.7537 20.4592H80.3978C79.0102 24.4376 75.2272 27.46 70.4238 27.46C64.814 27.46 59.9751 22.9386 59.9749 17.0241C59.9749 11.1096 64.5534 6.51687 70.3886 6.51687ZM70.4238 8.90146C67.0081 8.90146 63.2365 11.2746 62.5486 15.6427H78.4529C77.6465 10.9323 73.8396 8.90148 70.4238 8.90146Z" fill="black"/>
<path fill-rule="evenodd" clip-rule="evenodd" d="M203.722 14.2612C203.722 18.6763 203.462 21.1556 201.007 24.036C199.833 25.4173 196.903 27.4599 193.132 27.46C187.225 27.46 182.611 22.6784 182.611 16.9527C182.611 11.6285 186.715 6.51694 193.273 6.51687L193.285 6.52894C195.444 6.52896 198.812 7.29602 201.089 10.5425H201.161V0H203.722V14.2612ZM193.06 8.90146C188.779 8.90146 185.078 12.3252 185.078 16.9648C185.078 21.3091 188.482 25.0985 193.06 25.0985C197.638 25.0985 201.196 21.9585 201.196 16.9296C201.196 12.5143 197.935 8.90148 193.06 8.90146Z" fill="black"/>
<path fill-rule="evenodd" clip-rule="evenodd" d="M243.727 14.2612C243.727 18.6763 243.466 21.1556 241.011 24.036C239.837 25.4173 236.908 27.4599 233.136 27.46C227.242 27.46 222.616 22.6784 222.616 16.9527C222.616 11.6284 226.72 6.51687 233.29 6.51687L233.278 6.52894C235.437 6.52894 238.817 7.29606 241.082 10.5425H241.153V0H243.727V14.2612ZM233.053 8.90146C228.759 8.90154 225.059 12.3253 225.059 16.9648C225.059 21.3091 228.475 25.0985 233.053 25.0985C237.631 25.0985 241.189 21.9585 241.19 16.9296C241.19 12.5143 237.927 8.90146 233.053 8.90146Z" fill="black"/>
<path fill-rule="evenodd" clip-rule="evenodd" d="M264.671 6.51687C270.506 6.5171 275.297 11.2278 275.297 17.2012C275.297 17.4608 275.262 17.6732 275.262 17.9327H256.796L256.807 17.9448C257.056 21.9232 260.615 25.0985 264.718 25.0985C268.383 25.0984 270.993 22.9028 272.048 20.4592H274.68C273.281 24.4376 269.51 27.46 264.706 27.46C259.097 27.46 254.258 22.9386 254.257 17.0241C254.257 11.1096 258.836 6.51687 264.671 6.51687ZM264.718 8.90146C261.303 8.90146 257.531 11.2746 256.843 15.6427H272.748C271.941 10.9324 268.134 8.90157 264.718 8.90146Z" fill="black"/>
<path d="M122.539 6.52794C126.025 6.528 128.694 8.8299 128.694 11.9582H126.133C125.955 9.51465 124.305 8.81795 122.396 8.81795C120.309 8.8181 118.873 10.0225 118.873 11.6634C118.873 13.8474 120.961 14.6143 123.274 15.2754C126.903 16.3261 129.429 17.9321 129.429 21.6625C129.429 24.7674 127.164 27.459 122.728 27.459C118.921 27.4588 115.66 25.5224 115.66 21.0719H118.221V21.084C118.221 24.8024 121.186 25.1689 122.728 25.169C125.29 25.169 126.867 23.7051 126.867 21.6273C126.867 19.4433 125.361 18.4874 122.467 17.6138C119.87 16.811 116.312 15.6419 116.312 11.8525C116.312 8.93654 118.589 6.52794 122.539 6.52794Z" fill="black"/>
<path d="M109.172 7.03604H113.975V9.33813H109.172V19.621C109.172 21.3329 109.315 24.6146 113.051 24.6146H114.295V26.9871L114.307 26.9992H113.063C107.085 26.9992 106.61 22.478 106.61 19.4912V0H109.172V7.03604Z" fill="black"/>
<path d="M214.764 9.22041C211.241 9.51554 209.047 11.7348 209.047 15.3117V26.9992H206.485V7.03604H209.047V9.91667H209.118C210.221 7.36685 212.155 6.70575 214.764 6.51687V9.22041Z" fill="black"/>
<path d="M215.391 26.9992H212.675V22.4071H215.391V26.9992Z" fill="black"/>
<path d="M254.746 9.22041C251.224 9.51554 249.03 11.7348 249.029 15.3117V26.9992H246.468V7.03604H249.029V9.91667H249.101C250.204 7.36685 252.137 6.70575 254.746 6.51687V9.22041Z" fill="black"/>
<path d="M14.5993 10.1763C17.0067 10.1764 18.9749 12.1477 18.9751 14.544C18.9751 16.9404 17.0186 18.9004 14.5993 18.9006C12.18 18.9006 10.2228 16.9411 10.2225 14.5329C10.2225 12.1246 12.1917 10.1763 14.5993 10.1763Z" fill="black"/>
</g>
<defs>
<clipPath id="clip0_147_213">
<rect width="275.315" height="34" fill="white"/>
</clipPath>
</defs>
</svg>
