<svg width="718" height="990" viewBox="0 0 718 990" fill="none" xmlns="http://www.w3.org/2000/svg">
<path d="M717.392 717.392H516.521V990H0V160C7.83614e-05 71.6345 71.6345 3.23513e-06 160 0H717.392V717.392ZM538.039 444.783C522.191 444.783 509.343 457.63 509.343 473.479C509.343 489.327 522.191 502.174 538.039 502.174H717.387V444.783H538.039ZM616.962 57.3926C585.266 57.3927 559.571 83.0871 559.571 114.783C559.571 146.479 585.266 172.175 616.962 172.175C648.658 172.175 674.354 146.48 674.354 114.783C674.353 83.087 648.658 57.3926 616.962 57.3926Z" fill="#E23526"/>
</svg>
