<svg width="199" height="38" viewBox="0 0 199 38" fill="none" xmlns="http://www.w3.org/2000/svg">
<g clip-path="url(#clip0_147_208)">
<path d="M173.003 2.3135C173.19 2.3135 173.347 2.44669 173.383 2.62442L173.391 2.69262V8.67425H182.46C182.594 8.6735 182.717 8.74345 182.785 8.85478L182.816 8.91396L188.589 22.6003L194.03 8.91396C194.08 8.7908 194.191 8.70342 194.32 8.68027L194.386 8.67425H198.079C198.202 8.68562 198.313 8.75498 198.374 8.8608C198.427 8.9455 198.442 9.04571 198.424 9.14062L198.4 9.21083L186.609 37.772C186.558 37.8951 186.448 37.9824 186.32 38.0057L186.254 38.0117H182.675C182.546 38.0105 182.426 37.9456 182.355 37.8382C182.298 37.7521 182.279 37.6476 182.299 37.5484L182.321 37.4751L186.386 27.6993L179.79 12.5276H173.448L173.449 21.1029L173.459 21.6706L173.473 22.0186C173.476 22.0742 173.479 22.1293 173.483 22.1831L173.509 22.495C173.514 22.5449 173.519 22.5942 173.525 22.6424L173.564 22.9212C173.798 24.3481 174.452 24.8623 176.096 25.0184L176.417 25.0435L176.761 25.0615L177.13 25.0726C177.193 25.0739 177.258 25.0747 177.323 25.0756C177.508 25.0793 177.661 25.2121 177.695 25.3875L177.703 25.4547V28.7554C177.699 28.9428 177.562 29.0967 177.384 29.1285L177.315 29.1346L176.736 29.1336L176.22 29.1235C171.086 28.9672 169.283 27.1774 169.081 22.0106L169.066 21.492L169.061 20.9504V2.69262C169.065 2.50813 169.198 2.35524 169.373 2.32052L169.44 2.3135H173.003Z" fill="black"/>
<path d="M14.8374 0.0157306C21.6109 0.16989 26.5139 4.9237 28.7845 11.3481L32.1124 19.3557C32.2184 19.6117 32.0305 19.8929 31.7533 19.8933L28.0163 19.8963V24.5892C28.0163 28.1053 27.4888 28.7576 24.1078 28.7996L19.8974 28.8006L16.2927 37.4591C16.2046 37.671 15.9525 37.7607 15.7501 37.6527L8.73746 33.9116L15.4262 17.8001C15.8297 16.8322 16.7817 16.2068 17.8303 16.2205L24.3695 16.2195C25.2873 16.2195 26.0314 15.4757 26.0314 14.5576V14.4162C26.0314 7.84258 20.556 2.54764 13.9167 2.84407C7.70317 3.12184 2.86415 8.36188 2.86415 14.5817C2.86427 15.4904 3.60404 16.2254 4.51301 16.2195H13.2417L6.49987 32.7181L4.29036 31.5386C4.11417 31.4445 4.03799 31.2328 4.11384 31.0482L5.38559 27.9521C5.69398 27.2018 5.52115 26.3417 4.95131 25.7646C1.87871 22.6542 -0.0405018 18.6781 0.00873788 14.2387C0.0985955 6.16192 6.76238 -0.167912 14.8374 0.0157306Z" fill="black"/>
<path d="M146.425 8.22894C150.12 8.22894 152.651 9.53282 154.342 11.7603C154.411 11.8494 154.439 11.9643 154.417 12.0753C154.395 12.1862 154.325 12.2817 154.226 12.337L151.3 13.9297C151.135 14.0223 150.927 13.9798 150.812 13.8304C149.777 12.4676 148.134 11.7075 146.425 11.8015C144.059 11.8016 142.938 12.8906 142.938 14.2106C142.938 15.142 143.796 15.6385 145.374 16.0991L145.784 16.2135L146.223 16.3278L146.691 16.4442L147.712 16.6849L148.087 16.7681L148.644 16.8965L149.016 16.9888L149.387 17.087L149.756 17.1914L150.121 17.3037L150.483 17.424L150.838 17.5534C153.07 18.4019 154.886 19.8357 154.886 22.7407C154.886 25.7521 152.206 29.2088 146.64 29.1677C142.517 29.1676 139.655 27.7235 137.907 24.9763C137.836 24.8955 137.802 24.7881 137.815 24.6814C137.828 24.5744 137.885 24.4778 137.973 24.4156L141.157 22.6916C141.331 22.5939 141.55 22.6478 141.659 22.8149C142.79 24.5341 144.751 25.5211 146.805 25.4056C149.279 25.4055 150.573 24.2013 150.574 22.7989C150.574 21.7448 149.591 21.2185 148.219 20.8301L147.852 20.7318C147.79 20.7159 147.727 20.7004 147.663 20.6846L147.076 20.5472L145.626 20.2323L145.056 20.114L144.676 20.0297L144.108 19.8913L143.733 19.791C143.671 19.7736 143.609 19.7558 143.548 19.7379L143.181 19.6265C143.12 19.6072 143.058 19.5874 142.998 19.5674L142.64 19.442C140.393 18.6188 138.608 17.2013 138.608 14.2928C138.608 11.1248 141.651 8.19608 146.425 8.22894Z" fill="black"/>
<path fill-rule="evenodd" clip-rule="evenodd" d="M125.349 8.3192C131.096 8.33315 135.744 13.0059 135.731 18.756C135.717 24.5061 131.046 29.1562 125.299 29.1426C122.535 29.1513 119.882 28.0531 117.931 26.0926C115.981 24.1322 114.895 21.4728 114.917 18.7068C114.931 12.9567 119.602 8.30558 125.349 8.3192ZM128.464 13.1815C126.526 12.0303 124.113 12.0301 122.175 13.1815C120.236 14.3331 119.081 16.4528 119.164 18.7068C119.082 20.9607 120.237 23.0797 122.175 24.2311C124.113 25.3826 126.526 25.3825 128.464 24.2311C130.403 23.0797 131.558 20.9608 131.476 18.7068C131.559 16.4528 130.403 14.3331 128.464 13.1815Z" fill="black"/>
<path d="M52.6268 2.3135C52.8128 2.3135 52.9678 2.44757 52.9999 2.62442L53.0059 2.69262L53.0069 21.1109L53.013 21.496C53.0145 21.558 53.0159 21.6187 53.018 21.6786L53.033 22.0266L53.0561 22.3506L53.0882 22.6504C53.2922 24.2902 53.9399 24.8616 55.6939 25.0274L56.0148 25.0525L56.3598 25.0696L56.7289 25.0806C56.7926 25.0819 56.8578 25.0827 56.9235 25.0836C57.0882 25.1049 57.218 25.2281 57.2525 25.3855L57.2615 25.4547V28.7554C57.2574 28.9428 57.1207 29.0967 56.9425 29.1285L56.8733 29.1346L56.3518 29.1336L55.8363 29.1235C50.7018 28.9691 48.8996 27.1985 48.6972 22.0146L48.6822 21.494C48.6805 21.4054 48.6791 21.3156 48.6782 21.2252L48.6772 2.69262C48.6813 2.5053 48.8178 2.35142 48.9961 2.31952L49.0643 2.3135H52.6268Z" fill="black"/>
<path d="M63.9572 8.69932C64.1473 8.69941 64.3056 8.83644 64.3383 9.01726L64.3444 9.08647V19.9936C64.3444 23.5989 66.2579 25.3975 68.9379 25.3975C71.5568 25.3974 73.3883 23.695 73.4703 20.2373L73.4733 19.9936V9.08647C73.4734 8.89627 73.6107 8.73815 73.7912 8.70534L73.8604 8.69932H77.464C77.6542 8.69932 77.8124 8.83638 77.8451 9.01726L77.8512 9.08647V20.3487C77.851 25.6614 74.5779 29.0763 68.9379 29.0764C63.3886 29.0764 60.106 25.7703 60.0016 20.6034L59.9985 20.3487V9.08647C59.9987 8.89641 60.136 8.73831 60.3165 8.70534L60.3867 8.69932H63.9572Z" fill="black"/>
<path d="M103.051 8.33625C107.681 8.33625 111.387 11.2318 111.596 16.7801L111.603 17.065V28.3512C111.602 28.5385 111.469 28.6956 111.292 28.7314L111.224 28.7384H107.62C107.43 28.7384 107.272 28.6013 107.239 28.4204L107.233 28.3512V17.411C107.233 13.7895 105.831 12.0163 103.11 12.0161C100.45 12.0161 99.0509 13.7175 98.9885 17.1673L98.9865 17.411V28.3512C98.9863 28.5384 98.853 28.6956 98.6755 28.7314L98.6073 28.7384H95.0037C94.8135 28.7384 94.6544 28.6013 94.6216 28.4204L94.6156 28.3512V17.411C94.6155 13.7893 93.2218 12.0161 90.4924 12.0161C87.8252 12.0163 86.4341 13.71 86.3723 17.1673L86.3693 17.411V28.3512C86.3691 28.5411 86.2328 28.6993 86.0523 28.7324L85.9821 28.7384H82.3785C82.1884 28.7383 82.0303 28.6012 81.9974 28.4204L81.9914 28.3512V17.065C81.9914 11.3312 85.7844 8.33625 90.4764 8.33625C92.8687 8.24839 95.1838 9.19179 96.8341 10.9269C98.3612 9.24785 100.53 8.30553 102.791 8.32923L103.051 8.33625Z" fill="black"/>
<path d="M162.844 8.67425C163.058 8.67434 163.231 8.8483 163.231 9.06239V28.3512C163.231 28.5652 163.058 28.7383 162.844 28.7384H159.281C159.179 28.7384 159.082 28.6977 159.01 28.6251C158.939 28.5521 158.9 28.4532 158.902 28.3512V9.08647C158.893 8.98036 158.928 8.87499 159 8.79661C159.073 8.71816 159.175 8.67386 159.281 8.67425H162.844Z" fill="black"/>
<path d="M161.062 0.0117188C161.778 0.0117298 162.463 0.296126 162.969 0.802048C163.475 1.30798 163.759 1.99419 163.759 2.70967C163.759 4.19952 162.552 5.4076 161.062 5.40762C159.573 5.40762 158.367 4.19953 158.366 2.70967C158.366 1.21972 159.573 0.0117188 161.062 0.0117188Z" fill="black"/>
<path opacity="0.2" fill-rule="evenodd" clip-rule="evenodd" d="M14.4062 2.8321C8.00418 2.85418 2.86328 8.13946 2.86328 14.5417V14.5813C2.86328 15.4905 3.60335 16.2258 4.51229 16.2198H13.241L18.4222 3.5321L18.2812 3.48433C17.0687 3.05903 15.7651 2.82758 14.4062 2.8321Z" fill="black"/>
</g>
<defs>
<clipPath id="clip0_147_208">
<rect width="198.408" height="38" fill="white"/>
</clipPath>
</defs>
</svg>
