<svg width="158" height="36" viewBox="0 0 158 36" fill="none" xmlns="http://www.w3.org/2000/svg">
<g clip-path="url(#clip0_147_204)">
<path fill-rule="evenodd" clip-rule="evenodd" d="M71.9888 9.35174C72.9057 9.35174 73.7839 10.1523 73.7839 11.1828C73.7838 12.288 73.2104 13.0526 72.18 13.0526V13.0581C70.9196 13.0581 70.5373 12.2188 70.5373 10.6149C69.4736 10.6149 68.709 10.8974 68.1523 11.2382C69.2187 12.0969 70.0387 13.4099 70.0387 15.4265C70.0387 18.7479 66.7174 20.8476 63.5872 20.8476H61.3739C60.6869 21.1911 60.0387 21.6509 60.0387 22.4903C60.0387 24.3601 62.2548 24.2825 64.1246 24.3601C65.2299 24.3988 67.5983 24.5512 68.3988 24.59C70.6509 24.7036 73.2852 26.5734 73.2852 29.7811C73.2852 33.2936 70.2686 36.0027 63.7035 36.0027C57.673 36.0027 55.3822 34.2465 55.3822 31.3462C55.3822 29.2077 57.3656 27.4127 61.4126 27.2991V27.0332C59.9251 26.6121 57.4043 25.8116 57.4043 23.6343C57.4043 21.7645 59.5401 21.0387 60.8005 20.5429V20.313C58.1301 19.2437 56.4874 17.4875 56.4874 15.2354C56.4874 11.7229 59.5429 9.62321 63.3212 9.62321C63.3248 9.62323 65.6994 9.63522 67.6232 10.8559C68.8448 9.85038 70.5124 9.35175 71.9888 9.35174ZM62.3683 27.6011C59.6564 28.1357 58.626 29.2049 58.626 31.5706C58.626 33.0969 60.1135 35.0055 64.3517 35.0055C68.0525 35.0055 70.2298 33.5179 70.2298 30.5401C70.2298 29.662 70.0775 28.4404 68.2825 27.867H68.2852C67.4459 27.7534 65.8032 27.6011 62.3683 27.6011ZM63.2049 10.457C60.7617 10.457 60.0747 12.6703 60.0747 15.1911C60.0747 17.903 61.3351 19.9639 63.2437 19.9639V19.9612C65.4958 19.9612 66.4875 17.7479 66.4875 15.3046C66.4875 12.7866 65.6093 10.457 63.2049 10.457Z" fill="black"/>
<path fill-rule="evenodd" clip-rule="evenodd" d="M13.1856 0.974937C16.7258 0.974937 19.928 2.14391 22.7535 4.89183C24.9751 7.11344 26.3324 10.5816 26.3324 14.2714C26.3324 18.1882 25.1634 21.6176 22.4155 24.2935C19.9668 26.5539 16.9141 27.9112 13.036 27.9112C9.60665 27.9112 6.48201 26.6675 4.03326 24.3711C1.54572 22.0331 0 18.8309 0 14.7256C3.30992e-07 10.6204 1.20499 7.34058 3.65374 4.89183C6.21607 2.29349 9.53186 0.974938 13.1856 0.974937ZM13.1856 1.43753C7.83656 1.43753 4.55956 6.73949 4.55956 14.5373C4.55956 21.2436 7.31025 27.5068 13.1856 27.5068C19.0249 27.5068 21.7756 21.3932 21.7756 14.3877C21.7756 8.24641 19.4404 1.4403 13.1856 1.4403V1.43753Z" fill="black"/>
<path fill-rule="evenodd" clip-rule="evenodd" d="M117.011 9.61767C120.789 9.61767 123.576 10.1911 123.576 15.2686C123.576 18.6287 123.385 22.5595 123.385 23.8199C123.385 24.3933 123.92 25.7672 125.18 25.7673L125.183 25.7645C126.44 25.7645 126.557 24.277 126.67 22.8254H127.51C127.28 26.3767 125.828 27.7506 123.462 27.7506C121.667 27.7506 120.712 26.9501 120.102 25.1938H119.989C118.612 26.7977 116.629 27.8282 114.338 27.8282C111.703 27.8282 109.908 26.2243 109.908 23.7811C109.908 20.6509 111.742 19.5816 113.651 18.8559C115.825 18.0166 118.46 17.3684 120.064 16.4515V14.313C120.064 13.626 119.95 10.457 116.781 10.457C115.33 10.457 114.795 11.3351 114.451 11.7562C114.451 12.3296 114.795 13.2049 114.795 14.0082C114.795 14.8116 113.956 15.6509 112.582 15.6509C111.321 15.6509 110.864 14.6564 110.864 13.6647C110.864 11.3739 114.111 9.61767 117.011 9.61767ZM120.102 17.5595C116.285 18.7451 113.612 19.8143 113.612 23.2105C113.612 25.3074 114.565 26.2631 116.208 26.2631C118.194 26.2631 119.033 25.385 119.95 24.2409L120.102 17.5595Z" fill="black"/>
<path fill-rule="evenodd" clip-rule="evenodd" d="M149.762 9.61496C154.991 9.61496 156.9 13.0499 156.9 16.9446V17.2881H145.523V17.7092C145.523 22.6344 147.124 26.1468 151.21 26.1468C154.188 26.1468 155.141 25.0803 156.593 22.7507H156.595L157.282 23.2077C155.947 25.9169 153.39 27.8255 150.183 27.8255C144.418 27.8255 141.745 23.626 141.745 18.5873C141.745 14.0055 144.684 9.61496 149.762 9.61496ZM149.723 10.4986C147.318 10.4986 145.637 12.8671 145.523 16.4543L153.196 16.3767C153.196 13.6288 152.623 10.4986 149.723 10.4986Z" fill="black"/>
<path d="M134.127 10.1912H139.357V11.8338H134.166V22.0278C134.166 24.2023 134.775 25.615 137.105 25.615C139.052 25.615 139.205 24.0887 139.435 22.6372H140.271C139.964 25.3879 138.172 27.7535 135.346 27.7535C132.216 27.7535 130.728 25.8837 130.728 22.4848V11.8338H127.063V10.1912H130.806V4.507L134.127 4.27984V10.1912Z" fill="black"/>
<path d="M82.6928 10.1552V24.3934L82.6956 24.3962C82.6956 25.1967 83.039 25.8477 83.726 26.1524C84.3354 26.4183 84.9088 26.5707 85.4047 26.6095V27.374H76.51V26.6095C77.1969 26.5735 77.654 26.4959 78.1886 26.3436C78.9144 26.1137 79.2191 25.3906 79.2191 24.6261V13.6704C79.1443 12.8699 78.798 12.1829 78.1886 11.7618C77.7316 11.4571 76.6235 11.0749 75.9365 11.0361V10.3103L82.4268 9.88926L82.6928 10.1552Z" fill="black"/>
<path d="M100.174 9.62334C103.723 9.62334 105.366 12.0278 105.366 15.6538V24.471C105.366 25.3103 105.67 25.8837 106.357 26.1884C106.892 26.4184 107.349 26.5707 108.036 26.6095V27.374H99.0276V26.6095C99.7146 26.5735 100.288 26.4959 100.823 26.3436C101.548 26.1136 101.853 25.4654 101.853 24.6261V15.4267C101.853 12.7923 100.327 11.3408 98.6841 11.3408C95.8974 11.3408 94.3323 13.1358 93.9113 14.0139V24.435C93.9113 25.2743 94.2548 25.8477 94.9417 26.1524C95.5151 26.4183 96.0886 26.5707 96.7368 26.6095V27.374H87.7284V26.6095C88.4154 26.5735 88.8725 26.4959 89.4071 26.3436C90.1329 26.1137 90.4376 25.4654 90.4376 24.6261V13.6704C90.3628 12.8699 90.0165 12.0693 89.4071 11.6483C88.95 11.3436 88.2243 11.0776 87.5373 11.0389V10.3131L93.6453 9.89203L93.9113 10.158V12.7535H93.9888C95.4404 11.3408 96.8919 9.62334 100.174 9.62334Z" fill="black"/>
<path d="M51.5596 10.1552V24.3934C51.5596 25.194 51.9031 25.8449 52.5901 26.1496C53.1995 26.4156 53.7729 26.5679 54.2688 26.6067V27.3713H45.374V26.6067C46.061 26.5707 46.5181 26.4932 47.0527 26.3408L47.0555 26.3436C47.7812 26.1137 48.0859 25.3906 48.0859 24.6261V13.6704C48.0112 12.8699 47.6649 12.1829 47.0555 11.7618C46.5984 11.4571 45.4904 11.0749 44.8034 11.0361V10.3103L51.2937 9.88926L51.5596 10.1552Z" fill="black"/>
<path d="M40.3798 9.68988C41.5626 9.68989 42.7842 10.7591 42.7842 12.0195C42.7842 13.3547 42.0612 14.424 40.762 14.424C39.5404 14.424 38.7011 13.8921 38.7011 12.5929C38.7011 12.2107 38.967 11.9059 38.967 11.4101C37.0197 11.4101 35.6069 13.0528 35.1498 13.8921V24.4295C35.1498 25.2688 35.4934 25.881 36.1803 26.1469C36.8313 26.4129 37.9365 26.5652 38.6623 26.604V27.3685H28.967V26.604C29.654 26.568 30.1111 26.4904 30.6457 26.3381C31.3714 26.1082 31.6762 25.46 31.6762 24.6206V13.6649C31.6014 12.8644 31.2551 12.0638 30.6457 11.6428C30.1886 11.3381 29.4629 11.0722 28.7759 11.0334V10.3076L34.8839 9.88655L35.1498 10.1525V12.748H35.2274C36.8673 10.6511 38.7759 9.69542 40.3798 9.69542V9.68988Z" fill="black"/>
<path d="M49.4957 0C50.9085 4.77108e-06 51.9001 1.03048 51.9001 2.25208C51.9001 3.59003 50.8697 4.73408 49.4957 4.73409C48.2353 4.73409 47.1661 3.70084 47.1661 2.40444C47.1661 1.10804 48.2353 0 49.4957 0Z" fill="black"/>
<path d="M80.6316 0C82.0443 6.69816e-06 83.0388 1.03048 83.036 2.25208C83.036 3.59002 82.0055 4.73408 80.6316 4.73409C79.3712 4.73409 78.3019 3.70084 78.3019 2.40444C78.3019 1.10804 79.3712 0 80.6316 0Z" fill="black"/>
</g>
<defs>
<clipPath id="clip0_147_204">
<rect width="157.28" height="36" fill="white"/>
</clipPath>
</defs>
</svg>
