<svg width="201" height="40" viewBox="0 0 201 40" fill="none" xmlns="http://www.w3.org/2000/svg">
<path d="M121.526 16.7107H122.069C122.272 16.7107 122.443 16.7107 122.613 16.7476C122.751 16.7844 122.853 16.918 122.853 17.0884C122.853 17.1207 122.853 17.1898 122.816 17.222C122.816 17.2589 122.816 17.3233 122.783 17.3602V17.4293C122.783 17.4661 122.751 17.4661 122.751 17.4984C122.719 17.5306 122.719 17.5997 122.719 17.6366C122.682 17.6688 122.682 17.7056 122.682 17.7056L120.807 20.7687H120.605L118.901 18.5209C118.629 18.1801 118.56 17.8392 118.491 17.6366C118.389 17.4293 118.357 17.2635 118.357 17.093C118.357 16.9226 118.421 16.8213 118.56 16.789C118.661 16.72 118.831 16.72 119.002 16.72H119.545V11.8836H107.869V16.72H108.173C108.786 16.72 109.228 16.8213 109.5 17.0608C109.771 17.3003 110.043 17.6043 110.25 18.0143C110.283 18.0833 110.283 18.1156 110.319 18.1847C110.356 18.2169 110.389 18.286 110.421 18.3229L112.701 21.934L116.003 26.973L116.036 29.8334V30.0729C116.036 30.5842 115.934 30.8882 115.764 31.0263C115.561 31.1277 115.391 31.1968 115.183 31.1968H113.617V35.9963H125.671V31.1968H124.105C123.935 31.1968 123.765 31.1277 123.594 31.0263C123.456 30.9572 123.391 30.6532 123.391 30.1742V26.8717L127.343 19.5527C127.514 19.2118 127.583 18.8387 127.717 18.567C127.818 18.2584 127.924 18.0235 128.025 17.8162C128.196 17.4431 128.398 17.1345 128.638 16.9641C128.845 16.7937 129.218 16.7246 129.66 16.7246H130.581V11.8882H121.526V16.7246V16.7107ZM148.692 23.5231H148.283V23.2191H148.453C149.715 23.2191 150.871 22.7401 151.894 21.8235C152.948 20.9022 153.46 19.6448 153.46 17.9774C153.46 15.4901 152.46 13.2194 150.867 12.4501C149.213 11.6533 147.495 11.9205 145.491 11.9158C145.012 11.8836 144.57 11.8836 144.096 11.8836H132.281V16.72H133.336C133.677 16.72 133.948 16.7568 134.156 16.8904C134.395 16.9917 134.497 17.4016 134.497 18.0833V29.7965C134.497 30.4782 134.395 30.8836 134.156 31.0217C133.953 31.1231 133.677 31.1922 133.336 31.1922C133.304 31.1922 133.267 31.1599 133.267 31.1599L132.281 31.1922V35.9917H141.576C141.576 35.9917 147.794 36.0423 150.217 35.8028C152.81 35.5495 154.21 32.7214 154.21 29.4511C154.21 27.9173 153.736 26.5216 152.847 25.3333C151.963 24.1403 150.567 23.5277 148.692 23.5277V23.5231ZM141.848 17.1207H142.732C143.547 17.1207 144.266 17.222 144.81 17.4247C145.385 17.6642 145.694 18.2446 145.694 19.1934C145.694 19.7369 145.523 20.2482 145.215 20.7272C144.874 21.1694 144.294 21.3721 143.409 21.3721H141.843V17.1161L141.848 17.1207ZM145.427 30.0913C145.118 30.3953 144.777 30.6026 144.404 30.6717C144.202 30.7039 144.031 30.7408 143.861 30.7408H141.852V26.213H143.727C144.372 26.213 144.92 26.4157 145.325 26.8256C145.699 27.1987 145.906 27.8113 145.906 28.5943C145.906 29.276 145.768 29.7873 145.431 30.0913H145.427ZM177.738 19.4698C177.536 18.8249 177.296 18.1755 176.992 17.5306C176.683 16.8812 176.31 16.2686 175.868 15.6928C175.325 14.9098 174.744 14.2972 174.099 13.7859C173.487 13.2746 172.837 12.8325 172.193 12.4916C171.17 11.9803 170.184 11.6395 169.231 11.5059C168.245 11.3355 167.462 11.2664 166.813 11.2664C166.163 11.2664 165.348 11.3355 164.394 11.5059C163.409 11.6763 162.418 12.0172 161.364 12.5285C160.751 12.9015 160.138 13.3115 159.494 13.8227C158.881 14.334 158.301 14.9466 157.757 15.6974C157.315 16.2778 156.942 16.8904 156.666 17.5352C156.362 18.1847 156.085 18.8295 155.882 19.4744C155.643 20.2574 155.477 21.0082 155.408 21.7544C155.307 22.5374 155.27 23.2513 155.27 23.933C155.27 24.5456 155.307 25.3609 155.408 26.3512C155.546 27.3737 155.781 28.3963 156.159 29.4833C156.329 29.9623 156.532 30.4368 156.771 30.9158C157.011 31.4271 157.283 31.9015 157.624 32.3483C158.609 33.7117 159.871 34.7296 161.405 35.4113C162.939 36.0608 164.505 36.4661 166.14 36.5352H167.504C169.139 36.4661 170.705 36.0608 172.239 35.4113C173.772 34.7296 175.03 33.7071 176.02 32.3483C176.361 31.9061 176.633 31.4271 176.872 30.9158C177.112 30.4414 177.314 29.9623 177.485 29.4833C177.858 28.3963 178.134 27.3737 178.236 26.3512C178.337 25.3655 178.406 24.5456 178.406 23.933C178.406 23.2513 178.337 22.5374 178.268 21.7544C178.167 21.0036 177.996 20.2574 177.757 19.4744L177.738 19.4698ZM169.567 25.0523C169.567 26.7197 169.397 28.1153 169.056 29.2392C168.715 30.3631 167.964 30.9066 166.808 30.9066C165.652 30.9066 164.901 30.3631 164.56 29.2392C164.219 28.1153 164.086 26.7197 164.086 25.0523V22.8368C164.086 20.4555 164.289 18.9216 164.698 18.2077C165.108 17.4938 165.583 17.0516 166.094 16.9457C166.228 16.9134 166.334 16.9134 166.467 16.9134H167.181C167.282 16.9134 167.421 16.9134 167.522 16.9457C168.033 17.047 168.508 17.4892 168.918 18.2077C169.36 18.9216 169.567 20.4555 169.567 22.8368V25.0523ZM191.911 11.879V16.7153H192.422C192.625 16.7153 192.795 16.7153 192.966 16.7522C193.136 16.789 193.205 16.9226 193.205 17.093V17.2266C193.173 17.2635 193.173 17.328 193.173 17.3648C193.173 17.4016 193.136 17.4016 193.136 17.4339C193.136 17.4661 193.136 17.4707 193.104 17.503C193.104 17.5352 193.067 17.6043 193.067 17.6412C193.067 17.6734 193.035 17.7103 193.035 17.7103L191.197 20.6719H190.99L189.253 18.5255C188.982 18.1847 188.912 17.8438 188.843 17.6412C188.742 17.4339 188.71 17.2681 188.71 17.0976C188.71 16.9272 188.779 16.8259 188.912 16.7937C189.051 16.7246 189.184 16.7246 189.355 16.7246H189.935V11.8882H178.19V16.7246H178.53C179.143 16.7246 179.585 16.8259 179.857 17.0654C180.129 17.3049 180.368 17.6089 180.571 18.0189C180.608 18.088 180.64 18.1202 180.64 18.1893C180.677 18.2215 180.709 18.2906 180.741 18.3275L186.393 26.9085V30.0729C186.393 30.5842 186.292 30.8882 186.121 31.0263C185.951 31.1277 185.748 31.1968 185.541 31.1968H184.007V35.9963H196.024V31.1968H194.49C194.288 31.1968 194.117 31.1277 193.979 31.0263C193.809 30.9572 193.74 30.6532 193.74 30.1742V26.669L197.687 19.5527C197.857 19.2118 197.959 18.8387 198.06 18.567C198.161 18.2584 198.263 18.0235 198.364 17.8162C198.535 17.4431 198.737 17.1345 198.977 16.9641C199.216 16.7937 199.552 16.7246 199.999 16.7246H200.92V11.8882H191.897L191.911 11.879ZM109.679 30.8099C109.44 30.5703 109.237 30.1282 109.034 29.5156C109.002 29.4465 109.002 29.382 108.965 29.3129C108.965 29.2438 108.933 29.1793 108.933 29.1102L104.028 11.8836H94.7648L92.8579 18.3183L89.6567 28.4976C89.6245 28.599 89.5876 28.7003 89.5185 28.8385C89.4863 28.9398 89.4495 29.078 89.4172 29.1793C89.2836 29.5524 89.0764 29.8933 88.8369 30.2341C88.7678 30.3354 88.6987 30.4368 88.6342 30.5381C88.2933 30.948 87.8189 31.1829 87.2063 31.1829H86.695V35.9824H95.617V31.1829H95.2761C94.9353 31.1829 94.7326 31.1507 94.5944 31.1139C94.4562 31.0816 94.3549 31.0448 94.3227 30.9757C94.2536 30.9066 94.2213 30.8052 94.2213 30.7039C94.2213 30.5657 94.2582 30.4322 94.2904 30.294L94.4286 29.8518H101.748L101.886 30.6348C101.886 30.6671 101.886 30.7039 101.918 30.7039V30.773C101.918 30.9757 101.849 31.0816 101.679 31.1139C101.508 31.1461 101.338 31.1829 101.135 31.1829H100.149V35.9824H111.351V31.1829H110.84C110.329 31.1829 109.956 31.0448 109.684 30.8099H109.679ZM96.1282 24.4397L98.1365 18.1064H98.4082L100.177 24.4397H96.1236H96.1282ZM61.9053 13.5095C59.7957 12.5561 57.4789 12.0126 54.9271 11.9112C54.5863 11.879 54.2454 11.879 53.9046 11.879H43.8266V16.7153H44.8122C45.3235 16.7153 45.6275 16.7844 45.7979 16.9549C45.9684 17.1253 46.0697 17.4984 46.0697 18.0787V29.7919C46.0697 30.3723 45.9684 30.7454 45.7979 30.9158C45.6275 31.0862 45.3235 31.1875 44.8122 31.1875L43.8266 31.1553V35.9917H56.051V31.1922H54.6876C54.1441 31.1922 53.8033 31.054 53.6651 30.8513C53.4946 30.6486 53.4256 30.3078 53.4256 29.7965V27.5165H56.0095C58.7363 27.5165 60.7446 27.0375 62.0389 26.0518C63.2963 25.0984 64.1484 24.0067 64.5906 22.8506C64.761 22.3393 64.8946 21.8281 64.9637 21.3536C65.0328 20.8792 65.065 20.4324 65.065 20.0271C65.065 16.6555 64.0103 14.5091 61.9007 13.5234L61.9053 13.5095ZM56.355 21.3076C56.0142 21.6807 55.6733 21.957 55.2634 22.0906C55.0239 22.1275 54.7521 22.1919 54.5172 22.2288C54.2777 22.2288 54.1072 22.261 53.9368 22.261H53.4256V17.0838H54.1395C55.1252 17.0838 55.8437 17.3233 56.2491 17.8346C56.659 18.3136 56.8617 18.8894 56.8617 19.5711C56.8617 20.3541 56.6912 20.9345 56.3504 21.3076H56.355ZM81.7942 27.7791C81.7574 28.0186 81.7251 28.189 81.6929 28.3594C81.4856 29.2806 81.2507 29.8242 80.9421 30.0268C80.6703 30.2295 80.09 30.3354 79.2056 30.3354H75.7004V18.0096C75.7004 17.4293 75.7695 17.0562 75.9399 16.918C76.0781 16.7798 76.3499 16.7107 76.792 16.7107H78.0541V11.8744H66.1014V16.7107H67.1239C67.7365 16.7107 68.0774 16.8489 68.2156 17.0838C68.3169 17.3924 68.3538 17.7287 68.3538 18.0695V29.7827C68.3538 30.1236 68.3169 30.4644 68.1833 30.8053C68.082 31.0448 67.7412 31.1783 67.1286 31.1783L66.106 31.1461V35.9824H85.3086L85.479 27.0974H81.9048C81.8725 27.3691 81.8357 27.5718 81.8034 27.7791H81.7942ZM13.855 34.9046L11.0038 36.374L8.09283 34.9369C7.74737 34.8678 7.70131 34.9231 7.70131 34.9231C7.70131 34.9231 7.93162 38.6217 8.3001 38.9027C8.3001 38.9027 10.5847 37.8018 10.9486 37.6683C10.9486 37.6683 11.4506 37.5715 13.9195 39.9114C13.9195 39.9114 13.9886 40.1509 14.1912 39.8423L13.9886 34.9369L13.855 34.9046ZM21.2247 34.854L15.2921 36.6181C15.2921 36.6181 15.0526 36.7931 15.0848 37.2721C15.0848 37.2721 15.0157 37.8571 15.2921 37.9262L21.6669 36.0423C21.6669 36.0423 22.0768 35.3883 21.8419 34.9092C21.8419 34.9092 21.7728 34.7388 21.2247 34.8586V34.854ZM20.7088 5.5595C17.0055 10.6354 17.8945 17.9682 17.8945 17.9682C12.0632 9.81088 10.078 8.09283 10.078 8.09283C5.75756 3.70787 0.207272 1.3726 0.207272 1.3726L0 1.44169C0.552726 9.12458 5.21405 12.8923 5.21405 12.8923C8.50737 16.5265 14.6104 18.1064 14.6104 18.1064C4.45865 19.1335 4.11781 26.1301 4.11781 26.1301C3.64338 30.446 10.7689 32.0949 10.7689 32.0949C9.64967 34.2552 10.8058 35.6923 10.8058 35.6923C16.0244 32.9839 15.3658 33.5366 15.3658 33.5366C15.0157 35.4528 15.1907 35.4942 15.1907 35.4942C15.4072 35.637 15.5869 35.5265 15.5869 35.5265L21.6024 33.1912C21.6715 33.1912 22.4867 32.2331 22.4867 32.2331C23.2421 30.3815 23.3849 27.0237 23.3849 27.0237C24.2002 22.4959 20.7733 19.6126 20.7733 19.6126L20.9115 19.4053C25.1628 15.4303 25.8538 7.95004 25.8538 7.95004C25.9182 7.54471 25.9827 0 25.9827 0C22.6894 2.60702 20.7088 5.55489 20.7088 5.55489V5.5595ZM9.94446 24.366C9.19367 24.366 8.58567 23.7442 8.58567 22.975C8.58567 22.2058 9.19367 21.5885 9.94446 21.5885C10.6952 21.5885 11.2986 22.2104 11.2986 22.975C11.2986 23.7396 10.6906 24.366 9.94446 24.366Z" fill="black"/>
</svg>
