<svg width="197" height="26" viewBox="0 0 197 26" fill="none" xmlns="http://www.w3.org/2000/svg">
<g clip-path="url(#clip0_147_215)">
<path d="M103.292 6.30957C105.528 6.30963 107.316 6.8435 108.653 7.91406C110.015 8.96014 110.78 10.3935 110.949 12.2158H107.305C107.158 11.2923 106.746 10.5507 106.064 9.99219C105.383 9.43393 104.46 9.15332 103.294 9.15332C102.128 9.15337 101.156 9.37107 100.45 9.80957C99.7691 10.2482 99.4287 10.8673 99.4287 11.6709C99.4288 12.2782 99.6222 12.7281 100.012 13.0195C100.401 13.3109 101.093 13.5421 102.09 13.7109L106.029 14.3672C107.901 14.6832 109.288 15.2799 110.187 16.1543C111.11 17.0288 111.573 18.2445 111.573 19.8027C111.573 21.0421 111.233 22.137 110.552 23.085C109.871 24.0085 108.947 24.7252 107.781 25.2373C106.615 25.7467 105.313 26.0029 103.88 26.0029L103.875 26C101.54 26 99.6333 25.4275 98.1514 24.2861C96.6939 23.1447 95.7917 21.5645 95.4512 19.5459H99.0967C99.3146 20.6628 99.8261 21.5515 100.627 22.208C101.428 22.84 102.513 23.1562 103.872 23.1562C105.136 23.1562 106.133 22.8748 106.863 22.3164C107.593 21.758 107.958 21.0278 107.958 20.1289C107.958 19.4481 107.716 18.9005 107.229 18.4893C106.744 18.0507 105.964 17.7488 104.894 17.5771L101.027 16.9199C99.3005 16.6284 98.0014 16.081 97.127 15.2803C96.277 14.4794 95.8516 13.3837 95.8516 11.9971C95.8516 10.8803 96.1572 9.8938 96.7646 9.04395C97.3966 8.16969 98.2712 7.49938 99.3906 7.03906C100.532 6.55421 101.835 6.30957 103.292 6.30957Z" fill="black"/>
<path fill-rule="evenodd" clip-rule="evenodd" d="M84.7754 6.30957C86.5514 6.30963 88.1533 6.75927 89.5889 7.6582C91.0244 8.53266 92.1415 9.7233 92.9424 11.2324C93.7431 12.7142 94.1464 14.3566 94.1465 16.1543C94.1465 17.9521 93.7459 19.6059 92.9424 21.1123C92.1388 22.5942 91.0217 23.7875 89.5889 24.6865C88.1533 25.5609 86.5514 25.9999 84.7754 26C83.0019 26 81.3966 25.561 79.9609 24.6865C78.5255 23.7876 77.4083 22.5968 76.6074 21.1123C75.804 19.6059 75.4033 17.9521 75.4033 16.1543C75.4034 14.3567 75.804 12.7142 76.6074 11.2324C77.411 9.72609 78.5282 8.53538 79.9609 7.6582C81.3939 6.75921 82.9992 6.30957 84.7754 6.30957ZM84.7754 9.5918C83.683 9.5918 82.7074 9.90802 81.8574 10.54C81.032 11.1475 80.3995 11.9618 79.9609 12.9834C79.5224 13.9804 79.3047 15.0375 79.3047 16.1543C79.3047 17.2712 79.5223 18.3427 79.9609 19.3643C80.3995 20.3612 81.032 21.1621 81.8574 21.7695C82.7073 22.377 83.6803 22.6816 84.7754 22.6816C85.8703 22.6816 86.829 22.3768 87.6543 21.7695C88.5041 21.1621 89.1501 20.3584 89.5859 19.3643C90.0245 18.3427 90.2422 17.274 90.2422 16.1543C90.2421 15.0348 90.0245 13.9776 89.5859 12.9834C89.1473 11.9619 88.5042 11.1475 87.6543 10.54C86.829 9.90816 85.8676 9.59186 84.7754 9.5918Z" fill="black"/>
<path fill-rule="evenodd" clip-rule="evenodd" d="M174.089 6.30957C175.865 6.30959 177.467 6.75923 178.902 7.6582C180.338 8.53267 181.455 9.72324 182.256 11.2324C183.059 12.7142 183.46 14.3566 183.46 16.1543C183.46 17.9522 183.059 19.6059 182.256 21.1123C181.452 22.5942 180.335 23.7875 178.902 24.6865C177.469 25.561 175.865 26 174.089 26C172.315 26 170.711 25.561 169.275 24.6865C167.84 23.7875 166.723 22.597 165.922 21.1123C165.118 19.6059 164.718 17.9522 164.718 16.1543C164.718 14.3565 165.118 12.7143 165.922 11.2324C166.723 9.72593 167.842 8.5354 169.275 7.6582C170.711 6.75924 172.313 6.30957 174.089 6.30957ZM174.089 9.5918C172.994 9.5918 172.024 9.90802 171.171 10.54C170.346 11.1475 169.714 11.962 169.275 12.9834C168.837 13.9804 168.618 15.0375 168.618 16.1543C168.618 17.2712 168.837 18.3427 169.275 19.3643C169.714 20.3611 170.346 21.1621 171.171 21.7695C172.021 22.377 172.994 22.6816 174.089 22.6816C175.184 22.6816 176.143 22.3769 176.971 21.7695C177.821 21.1621 178.466 20.3584 178.902 19.3643C179.341 18.3427 179.559 17.274 179.559 16.1543C179.559 15.0348 179.341 13.9776 178.902 12.9834C178.464 11.9619 177.821 11.1475 176.971 10.54C176.145 9.90812 175.184 9.59182 174.089 9.5918Z" fill="black"/>
<path d="M118.999 6.74805H124.031V9.95703H118.999V19.5459C118.999 20.4938 119.231 21.224 119.691 21.7334C120.176 22.2183 120.882 22.4639 121.806 22.4639C122.582 22.4638 123.336 22.3546 124.066 22.1367V25.3457C123.726 25.4928 123.263 25.602 122.68 25.6729C122.122 25.7464 121.514 25.7812 120.858 25.7812C118.939 25.7809 117.493 25.2587 116.521 24.2129C115.572 23.1423 115.099 21.5863 115.099 19.5459V9.95703H111.78V6.74805H115.099V1.75195H118.999V6.74805Z" fill="black"/>
<path d="M191.006 6.74805H196.038V9.95703H191.006V19.5459C191.006 20.4938 191.238 21.224 191.698 21.7334C192.183 22.2183 192.889 22.4639 193.812 22.4639C194.589 22.4638 195.343 22.3546 196.073 22.1367V25.3457C195.733 25.4928 195.27 25.602 194.687 25.6729C194.128 25.7464 193.521 25.7812 192.865 25.7812C190.946 25.781 189.5 25.2586 188.527 24.2129C187.579 23.1423 187.105 21.5863 187.105 19.5459V9.95703H183.787V6.74805H187.105V1.75195H191.006V6.74805Z" fill="black"/>
<path fill-rule="evenodd" clip-rule="evenodd" d="M46.2715 0C47.1704 0 47.9013 0.729995 47.9014 1.62891V23.9375C47.9014 24.8365 47.1705 25.5664 46.2715 25.5664H19.7158L17.1963 22.3086H44.6426V5.55762L32.4297 17.7705L20.9883 6.32812C19.0241 4.36134 16.3568 3.25781 13.5781 3.25781H2.45508L-0.0644531 0H46.2715ZM32.4326 13.1611L42.3408 3.25781H22.5273L32.4326 13.1611Z" fill="black"/>
<path d="M162.258 25.5645H158.356V0H162.258V25.5645Z" fill="black"/>
<path fill-rule="evenodd" clip-rule="evenodd" d="M66.6289 0.0380859C68.4024 0.0380859 69.9583 0.378514 71.2959 1.05957C72.6334 1.7161 73.6546 2.62902 74.3574 3.79492C75.0875 4.96089 75.4531 6.26335 75.4531 7.69629C75.4531 9.12901 75.0874 10.4662 74.3574 11.6348C73.6273 12.8007 72.5838 13.7242 71.2217 14.4053C69.8841 15.0618 68.3533 15.3887 66.6289 15.3887H59.3359V25.5615H55.3262V0.0380859H66.6289ZM59.3359 12.0352H66.2285C67.3235 12.0352 68.258 11.8426 69.0371 11.4531C69.8407 11.0636 70.4347 10.5402 70.8242 9.88379C71.2383 9.22725 71.4453 8.4856 71.4453 7.66016C71.4453 6.83499 71.2381 6.14065 70.8242 5.50879C70.4347 4.85225 69.8408 4.34259 69.0371 3.97754C68.258 3.61249 67.3237 3.42969 66.2285 3.42969H59.3359V12.0352Z" fill="black"/>
<path fill-rule="evenodd" clip-rule="evenodd" d="M139.24 0.0380859C141.014 0.0380859 142.57 0.378514 143.907 1.05957C145.245 1.71609 146.266 2.62902 146.969 3.79492C147.699 4.96089 148.064 6.26335 148.064 7.69629C148.064 9.12904 147.699 10.4662 146.969 11.6348C146.239 12.8006 145.196 13.7242 143.834 14.4053C142.496 15.0618 140.965 15.3887 139.24 15.3887H131.947V25.5615H127.938V0.0380859H139.24ZM131.947 12.0352H138.84C139.935 12.0352 140.869 11.8426 141.648 11.4531C142.452 11.0636 143.046 10.5402 143.436 9.88379C143.85 9.22725 144.057 8.4856 144.057 7.66016C144.057 6.83495 143.849 6.14067 143.436 5.50879C143.046 4.85225 142.452 4.34259 141.648 3.97754C140.869 3.61254 139.935 3.42969 138.84 3.42969H131.947V12.0352Z" fill="black"/>
<path d="M154.807 25.5615H150.905V7.32812H154.807V25.5615Z" fill="black"/>
<path d="M18.4424 11.1309C19.3412 11.1309 20.0712 11.8609 20.0713 12.7598C20.0713 13.6587 19.3413 14.3886 18.4424 14.3887H11.1191L8.59961 11.1309H18.4424Z" fill="black"/>
<path d="M154.88 4.30176H150.832V0H154.88V4.30176Z" fill="black"/>
</g>
<defs>
<clipPath id="clip0_147_215">
<rect width="196.072" height="26" fill="white"/>
</clipPath>
</defs>
</svg>
