<svg width="159" height="26" viewBox="0 0 159 26" fill="none" xmlns="http://www.w3.org/2000/svg">
<g clip-path="url(#clip0_147_206)">
<path d="M77.3858 0.0141602C80.5725 0.0141602 83.0797 0.773353 85.2448 2.40421L83.4218 6.20017V6.19079C81.7909 5.01452 79.8555 4.44278 77.6529 4.44278C72.8306 4.44278 69.3767 7.85916 69.3767 12.6065C69.3768 17.9958 72.9431 21.5293 78.4121 21.5293C80.1976 21.5293 81.6738 21.2247 83.9139 20.353L84.7855 24.3786C83.1922 25.1003 82.5455 25.3253 81.4067 25.5924C80.1929 25.8595 78.8666 26.0095 77.3858 26.0095C73.4726 26.0095 70.6655 25.0206 68.3129 22.8977C65.6558 20.5077 64.0999 16.7867 64.0999 12.8783C64.0999 9.23226 65.4636 5.93305 67.9334 3.50551C70.4406 1.03579 73.2477 0.0141606 77.3858 0.0141602Z" fill="black"/>
<path d="M53.1388 0.032924C54.8072 0.0329244 56.2881 0.225057 57.8439 0.679634C59.0577 1.05923 59.7419 1.32168 61.4103 2.12305L59.5123 6.41108L59.5076 6.41577C56.8504 5.23949 54.6853 4.63026 53.017 4.63026C50.7769 4.63026 49.3335 5.53941 49.3335 6.94532C49.3335 8.00913 49.938 8.65117 51.7235 9.60251C55.557 11.6504 58.0642 13.2438 59.2405 14.4201C60.3043 15.4839 60.951 17.1523 60.951 18.9003C60.951 23.3804 57.6846 25.9954 52.1453 25.9954C51.3861 25.9954 50.6269 25.9204 49.9052 25.8455C48.1197 25.5783 47.2855 25.3159 44.6659 24.1021C44.3237 23.9475 43.7567 23.685 43.035 23.3429L45.0455 18.9377C46.8685 19.9266 47.6277 20.3062 48.6165 20.6858C49.8677 21.1404 51.2362 21.4075 52.2203 21.4075C54.4229 21.4075 55.8663 20.4187 55.8663 18.9003C55.8663 17.8365 55.2945 17.1148 53.6637 16.2056L49.7928 14.003C45.3501 11.463 43.9863 9.78995 43.9863 7.05779C43.9863 5.80653 44.3659 4.51309 44.9752 3.56644C45.3922 2.91973 46.039 2.27302 46.8357 1.70597C48.6587 0.454707 50.2145 0.032924 53.1388 0.032924Z" fill="black"/>
<path d="M153.333 16.927C153.371 17.002 153.488 17.1941 153.601 17.4566C153.713 17.7237 153.788 17.8737 153.83 17.9486L154.055 18.5954L154.285 19.0499V0.454423H158.802V25.7327H153.793L153.783 25.7374L143.042 9.52725C142.967 9.41477 142.775 9.07267 142.513 8.54311C142.32 8.23849 142.245 8.05103 142.213 8.01353C142.058 7.70893 141.983 7.55896 141.866 7.14189V25.5125H137.311V0.454423H142.817L153.333 16.927Z" fill="black"/>
<path d="M131.885 4.51283H121.406V10.7035H129.982V14.7666H121.406V21.4494H132.377V25.5125H116.626V0.454423H131.885V4.51283Z" fill="black"/>
<path d="M19.814 4.51283H12.297L12.3017 4.51752V25.5078H7.51694V4.51752H0V0.454423H19.814V4.51283Z" fill="black"/>
<path fill-rule="evenodd" clip-rule="evenodd" d="M41.0711 25.5078H36.0613L34.0884 19.3218H25.6997L23.6518 25.5078H18.6421L27.7102 0.454423H31.9982L41.0711 25.5078ZM26.9885 15.2634H32.7949L29.873 6.19786L26.9885 15.2634Z" fill="black"/>
<path d="M93.8871 10.4739H106.756V0.454423H111.536V25.5078H106.756V14.7666H93.8871V25.5078H89.107V0.454423H93.8871V10.4739Z" fill="black"/>
</g>
<defs>
<clipPath id="clip0_147_206">
<rect width="158.798" height="26" fill="white"/>
</clipPath>
</defs>
</svg>
