<svg width="1441" height="82" viewBox="0 0 1441 82" fill="none" xmlns="http://www.w3.org/2000/svg">
<path d="M28.2439 21.8265V32.9206H59.0333V53.5412H28.2439V80.7941H0V1.20588H66.3064V21.8265H28.2439Z" fill="currentColor"/>
<path d="M109.855 54.3853H102.097V80.7941H74.4593V1.20588H117.855C128.523 1.20588 136.563 3.45686 141.978 7.95882C147.473 12.3804 150.221 19.0127 150.221 27.8559C150.221 39.5127 145.412 47.351 135.796 51.3706L154.706 80.7941H124.038L109.855 54.3853ZM102.097 35.9353H112.158C115.714 35.9353 118.219 35.4127 119.674 34.3676C121.209 33.2422 121.977 31.3127 121.977 28.5794C121.977 25.9265 121.209 24.0373 119.674 22.9118C118.219 21.7863 115.714 21.2235 112.158 21.2235H102.097V35.9353Z" fill="currentColor"/>
<path d="M206.112 65.6H184.535L180.777 80.7941H152.655L178.595 1.20588H212.536L238.598 80.7941H209.748L206.112 65.6ZM201.99 48.1147L195.566 21.5853H195.202L192.051 35.0912L188.778 48.1147H201.99Z" fill="currentColor"/>
<path d="M321.809 80.7941H291.262L272.109 44.6176L267.746 34.85H267.503L267.988 51.25V80.7941H243.502V1.20588H274.049L293.201 37.5029L297.565 47.15H297.808L297.323 30.75V1.20588H321.809V80.7941Z" fill="currentColor"/>
<path d="M409.098 56.4353C404.976 73.4784 392.652 82 372.126 82C363.722 82 356.448 80.3922 350.307 77.1765C344.246 73.9608 339.559 69.298 336.245 63.1882C333.013 56.998 331.397 49.602 331.397 41C331.397 32.398 333.013 25.0422 336.245 18.9324C339.559 12.7422 344.246 8.03921 350.307 4.82352C356.448 1.60784 363.722 0 372.126 0C381.5 0 389.501 2.0098 396.127 6.02941C402.754 9.96863 406.875 15.998 408.491 24.1176L384.248 33.5235C383.601 28.6196 382.43 25.3235 380.732 23.6353C379.035 21.9471 376.409 21.1029 372.853 21.1029C368.651 21.1029 365.499 22.7108 363.398 25.9265C361.297 29.1422 360.247 34.1667 360.247 41C360.247 47.8333 361.257 52.8578 363.277 56.0735C365.297 59.2892 368.409 60.8971 372.611 60.8971C376.409 60.8971 379.157 60.0529 380.854 58.3647C382.551 56.6765 383.642 53.9029 384.127 50.0441L409.098 56.4353Z" fill="currentColor"/>
<path d="M483.86 60.1735V80.7941H415.978V1.20588H482.405V21.8265H444.221V31.7147H475.011V50.7676H444.221V60.1735H483.86Z" fill="currentColor"/>
<path d="M526.647 0C534.567 0 541.315 0.92451 546.891 2.77353C552.467 4.62255 558.002 7.91863 563.497 12.6618L551.133 30.1471C547.497 26.7706 543.779 24.3588 539.981 22.9118C536.264 21.3843 532.102 20.6206 527.496 20.6206C524.667 20.6206 522.404 21.0627 520.707 21.9471C519.01 22.751 518.162 23.8363 518.162 25.2029C518.162 26.0873 518.97 26.7706 520.586 27.2529C522.202 27.7353 525.031 28.3382 529.071 29.0618C540.789 31.152 549.194 34.3275 554.285 38.5882C559.457 42.7686 562.043 48.6775 562.043 56.3147C562.043 61.7814 560.467 66.4441 557.315 70.3029C554.164 74.1618 549.881 77.0961 544.466 79.1059C539.052 81.0353 532.991 82 526.283 82C516.828 82 509.272 81.1157 503.616 79.3471C497.959 77.5784 492.423 74.7245 487.009 70.7853L499.131 51.7324C502.525 55.0284 506.242 57.4804 510.283 59.0882C514.323 60.6157 518.97 61.3794 524.223 61.3794C530.122 61.3794 533.072 60.1735 533.072 57.7618C533.072 56.4755 532.142 55.5108 530.284 54.8676C528.425 54.2245 525.394 53.5412 521.192 52.8176C515.051 51.6922 509.798 50.4059 505.434 48.9588C501.151 47.5118 497.353 45.0598 494.039 41.6029C490.807 38.1461 489.191 33.4029 489.191 27.3735C489.191 21.9069 490.645 17.1235 493.555 13.0235C496.464 8.92353 500.706 5.74804 506.282 3.49706C511.939 1.16569 518.727 0 526.647 0Z" fill="currentColor"/>
<path d="M645.379 56.4353C641.257 73.4784 628.933 82 608.407 82C600.002 82 592.729 80.3922 586.588 77.1765C580.527 73.9608 575.84 69.298 572.526 63.1882C569.294 56.998 567.678 49.602 567.678 41C567.678 32.398 569.294 25.0422 572.526 18.9324C575.84 12.7422 580.527 8.03921 586.588 4.82352C592.729 1.60784 600.002 0 608.407 0C617.781 0 625.782 2.0098 632.408 6.02941C639.035 9.96863 643.156 15.998 644.772 24.1176L620.529 33.5235C619.882 28.6196 618.71 25.3235 617.013 23.6353C615.316 21.9471 612.69 21.1029 609.134 21.1029C604.932 21.1029 601.78 22.7108 599.679 25.9265C597.578 29.1422 596.528 34.1667 596.528 41C596.528 47.8333 597.538 52.8578 599.558 56.0735C601.578 59.2892 604.69 60.8971 608.892 60.8971C612.69 60.8971 615.438 60.0529 617.135 58.3647C618.832 56.6765 619.923 53.9029 620.408 50.0441L645.379 56.4353Z" fill="currentColor"/>
<path d="M690.442 0C703.211 0 713.151 3.61765 720.262 10.8529C727.454 18.0078 731.051 28.0569 731.051 41C731.051 53.9431 727.454 64.0324 720.262 71.2677C713.151 78.4226 703.211 82 690.442 82C682.038 82 674.765 80.3922 668.623 77.1765C662.562 73.9608 657.875 69.298 654.562 63.1882C651.329 56.998 649.713 49.602 649.713 41C649.713 32.398 651.329 25.0422 654.562 18.9324C657.875 12.7422 662.562 8.03921 668.623 4.82352C674.765 1.60784 682.038 0 690.442 0ZM690.442 21.1029C686.321 21.1029 683.291 22.7108 681.351 25.9265C679.492 29.0618 678.563 34.0863 678.563 41C678.563 47.9137 679.492 52.9784 681.351 56.1941C683.291 59.3294 686.321 60.8971 690.442 60.8971C694.564 60.8971 697.554 59.3294 699.413 56.1941C701.271 52.9784 702.201 47.9137 702.201 41C702.201 34.0863 701.271 29.0618 699.413 25.9265C697.554 22.7108 694.564 21.1029 690.442 21.1029Z" fill="currentColor"/>
<path d="M741.22 1.20588H787.041C797.142 1.28627 804.658 3.0951 809.587 6.63235C814.517 10.0892 816.982 15.3549 816.982 22.4294C816.982 27.3333 815.446 31.4333 812.375 34.7294C809.385 37.9451 804.9 39.9549 798.92 40.7588V40.8794C805.708 41.6029 810.759 43.6127 814.072 46.9088C817.386 50.2049 819.042 54.5059 819.042 59.8118C819.042 66.8059 816.658 72.0716 811.89 75.6088C807.122 79.0657 799.89 80.7941 790.192 80.7941H741.22V1.20588ZM780.616 32.0765C785.626 32.0765 788.132 30.1471 788.132 26.2882C788.132 22.4294 785.626 20.5 780.616 20.5H768.252V32.0765H780.616ZM782.677 62.4647C787.687 62.4647 790.192 60.4951 790.192 56.5559C790.192 52.7775 787.687 50.8882 782.677 50.8882H768.252V62.4647H782.677Z" fill="currentColor"/>
<path d="M894.452 60.1735V80.7941H826.57V1.20588H892.998V21.8265H854.814V31.7147H885.603V50.7676H854.814V60.1735H894.452Z" fill="currentColor"/>
<path d="M966.938 60.1735V80.7941H902.45V1.20588H930.694V60.1735H966.938Z" fill="currentColor"/>
<path d="M1016.99 80.7941H983.415L956.384 1.20588H985.84L996.87 44.7382L1000.75 60.2941L1004.39 44.9794L1015.66 1.20588H1044.02L1016.99 80.7941Z" fill="currentColor"/>
<path d="M1117 60.1735V80.7941H1049.12V1.20588H1115.55V21.8265H1077.36V31.7147H1108.15V50.7676H1077.36V60.1735H1117Z" fill="currentColor"/>
<path d="M1164.27 1.20588C1176.72 1.20588 1186.13 4.66274 1192.52 11.5765C1198.98 18.4098 1202.22 28.2176 1202.22 41C1202.22 53.7824 1198.98 63.6304 1192.52 70.5441C1186.13 77.3775 1176.72 80.7941 1164.27 80.7941H1125V1.20588H1164.27ZM1160.27 60.7765C1165.28 60.7765 1168.72 59.249 1170.58 56.1941C1172.44 53.1392 1173.37 48.0745 1173.37 41C1173.37 33.9255 1172.44 28.8608 1170.58 25.8059C1168.72 22.751 1165.28 21.2235 1160.27 21.2235H1153.24V60.7765H1160.27Z" fill="currentColor"/>
<path d="M1279.65 60.1735V80.7941H1211.77V1.20588H1278.2V21.8265H1240.01V31.7147H1270.8V50.7676H1240.01V60.1735H1279.65Z" fill="currentColor"/>
<path d="M1323.05 54.3853H1315.29V80.7941H1287.65V1.20588H1331.05C1341.71 1.20588 1349.75 3.45686 1355.17 7.95882C1360.66 12.3804 1363.41 19.0127 1363.41 27.8559C1363.41 39.5127 1358.6 47.351 1348.99 51.3706L1367.9 80.7941H1337.23L1323.05 54.3853ZM1315.29 35.9353H1325.35C1328.9 35.9353 1331.41 35.4127 1332.86 34.3676C1334.4 33.2422 1335.17 31.3127 1335.17 28.5794C1335.17 25.9265 1334.4 24.0373 1332.86 22.9118C1331.41 21.7863 1328.9 21.2235 1325.35 21.2235H1315.29V35.9353Z" fill="currentColor"/>
<path d="M1441 60.1735V80.7941H1373.12V1.20588H1439.55V21.8265H1401.36V31.7147H1432.15V50.7676H1401.36V60.1735H1441Z" fill="currentColor"/>
</svg>
