<svg width="390" height="92" viewBox="0 0 390 92" fill="none" xmlns="http://www.w3.org/2000/svg">
<path fill-rule="evenodd" clip-rule="evenodd" d="M24.4541 46.6797C30.14 46.7248 34.3708 47.7393 37.1455 49.7236C39.9201 51.6628 41.3076 54.6174 41.3076 58.5859C41.3075 61.3366 40.4431 63.6365 38.7148 65.4854C37.0318 67.2893 34.5067 68.4172 31.1406 68.8682V68.9355C34.9615 69.3414 37.8049 70.4693 39.6699 72.3184C41.5347 74.1673 42.4668 76.5803 42.4668 79.5566C42.4667 83.4799 41.125 86.4337 38.4414 88.418C35.7577 90.3571 31.6868 91.3271 26.2285 91.3271H-1.33691V46.6797H24.4541ZM13.8789 81.0439H21.998C24.8182 81.0439 26.2285 79.9393 26.2285 77.7295C26.2284 75.61 24.8181 74.5498 21.998 74.5498H13.8789V81.0439ZM13.8789 63.9971H20.8379C23.6581 63.9971 25.0684 62.9147 25.0684 60.75C25.0682 58.5855 23.658 57.5029 20.8379 57.5029H13.8789V63.9971Z" fill="url(#paint0_linear_393_18147)"/>
<path d="M84.0947 58.2471H62.6025V63.7939H79.9326V74.4824H62.6025V79.7588H84.9141V91.3271H46.7041V46.6797H84.0947V58.2471Z" fill="url(#paint1_linear_393_18147)"/>
<path d="M105.312 79.7588H125.714V91.3271H89.415V46.6797H105.312V79.7588Z" fill="url(#paint2_linear_393_18147)"/>
<path d="M142.562 71.1006L144.745 79.8271L146.792 71.2354L153.138 46.6797H169.104L153.889 91.3271H134.988L119.773 46.6797H136.354L142.562 71.1006Z" fill="url(#paint3_linear_393_18147)"/>
<path d="M209.362 58.2471H187.869V63.7939H205.2V74.4824H187.869V79.7588H210.181V91.3271H171.972V46.6797H209.362V58.2471Z" fill="url(#paint4_linear_393_18147)"/>
<path fill-rule="evenodd" clip-rule="evenodd" d="M236.789 46.6797C243.794 46.6797 249.093 48.6189 252.687 52.4971C256.325 56.3304 258.145 61.8325 258.146 69.0029C258.146 76.1735 256.325 81.6987 252.687 85.5771C249.093 89.4102 243.794 91.3271 236.789 91.3271H214.683V46.6797H236.789ZM230.58 80.0977H234.537C237.357 80.0977 239.291 79.2401 240.337 77.5264C241.383 75.8126 241.906 72.9714 241.906 69.0029C241.906 65.0345 241.383 62.1932 240.337 60.4795C239.291 58.7659 237.357 57.9092 234.537 57.9092H230.58V80.0977Z" fill="url(#paint5_linear_393_18147)"/>
<path d="M300.914 58.2471H279.421V63.7939H296.752V74.4824H279.421V79.7588H301.732V91.3271H263.523V46.6797H300.914V58.2471Z" fill="url(#paint6_linear_393_18147)"/>
<path fill-rule="evenodd" clip-rule="evenodd" d="M330.661 46.6797C336.665 46.6797 341.191 47.9425 344.238 50.4678C347.331 52.9482 348.878 56.6691 348.878 61.6299C348.878 68.169 346.172 72.5664 340.759 74.8213L351.403 91.3271H334.141L326.157 76.5117H321.791V91.3271H306.234V46.6797H330.661ZM321.791 66.1621H327.454C329.455 66.1621 330.866 65.8685 331.685 65.2822C332.549 64.6508 332.98 63.5682 332.98 62.0352C332.98 60.5473 332.549 59.4878 331.685 58.8564C330.866 58.2251 329.455 57.9092 327.454 57.9092H321.791V66.1621Z" fill="url(#paint7_linear_393_18147)"/>
<path d="M391.732 58.2471H370.24V63.7939H387.57V74.4824H370.24V79.7588H392.552V91.3271H354.342V46.6797H391.732V58.2471Z" fill="url(#paint8_linear_393_18147)"/>
<path d="M200.354 0C205.4 4.12975e-05 209.708 1.07856 213.275 3.23535C216.843 5.34908 219.062 8.58454 219.933 12.9414L206.88 17.9883C206.532 15.3572 205.901 13.5886 204.987 12.6826C204.074 11.7768 202.659 11.3233 200.745 11.3232C198.483 11.3232 196.786 12.1866 195.654 13.9121C194.523 15.6376 193.957 18.3335 193.957 22C193.957 25.6665 194.501 28.3624 195.589 30.0879C196.677 31.8134 198.352 32.6768 200.614 32.6768C202.659 32.6768 204.138 32.2232 205.052 31.3174C205.965 30.4115 206.553 28.9231 206.814 26.8525L220.259 30.2822C218.04 39.4272 211.405 43.9999 200.354 44C195.829 44 191.912 43.1376 188.605 41.4121C185.342 39.6867 182.819 37.1845 181.035 33.9062C179.295 30.5847 178.425 26.6157 178.425 22C178.425 17.3844 179.295 13.4376 181.035 10.1592C182.819 6.83762 185.342 4.31338 188.605 2.58789C191.912 0.862402 195.829 0 200.354 0Z" fill="url(#paint9_linear_393_18147)"/>
<path d="M283.548 0C287.811 1.65681e-05 291.444 0.496229 294.446 1.48828C297.448 2.48041 300.429 4.24895 303.388 6.79395L296.731 16.1768C294.774 14.365 292.772 13.0704 290.727 12.2939C288.725 11.4744 286.485 11.0645 284.005 11.0645C282.482 11.0645 281.263 11.3019 280.35 11.7764C279.436 12.2077 278.98 12.7902 278.979 13.5234C278.979 13.9979 279.414 14.3642 280.284 14.623C281.154 14.8819 282.677 15.2056 284.853 15.5938C291.161 16.7153 295.687 18.4198 298.428 20.7061C301.212 22.9492 302.604 26.1197 302.604 30.2178C302.604 33.1511 301.756 35.6531 300.06 37.7236C298.363 39.7942 296.057 41.3688 293.142 42.4473C290.226 43.4826 286.963 44 283.352 44C278.261 44 274.193 43.5252 271.147 42.5762C268.102 41.6272 265.121 40.0961 262.206 37.9824L268.732 27.7588C270.56 29.5274 272.562 30.8433 274.737 31.7061C276.913 32.5256 279.414 32.9355 282.242 32.9355C285.418 32.9355 287.007 32.2882 287.007 30.9941C287.007 30.304 286.506 29.7865 285.506 29.4414C284.505 29.0963 282.873 28.7291 280.61 28.3408C277.304 27.7369 274.475 27.0469 272.126 26.2705C269.82 25.494 267.775 24.178 265.991 22.3232C264.251 20.4684 263.381 17.9235 263.381 14.6885C263.381 11.7552 264.164 9.18826 265.73 6.98828C267.297 4.78838 269.581 3.08479 272.583 1.87695C275.629 0.625973 279.284 0 283.548 0Z" fill="url(#paint10_linear_393_18147)"/>
<path d="M327.567 0C332.614 1.30413e-05 336.922 1.07859 340.489 3.23535C344.057 5.34908 346.276 8.58454 347.146 12.9414L334.094 17.9883C333.746 15.3571 333.115 13.5886 332.201 12.6826C331.287 11.7768 329.873 11.3233 327.959 11.3232C325.696 11.3232 323.999 12.1866 322.868 13.9121C321.737 15.6376 321.172 18.3335 321.172 22C321.172 25.6664 321.715 28.3624 322.803 30.0879C323.89 31.8133 325.566 32.6767 327.828 32.6768C329.873 32.6768 331.353 32.2233 332.267 31.3174C333.18 30.4115 333.767 28.9229 334.028 26.8525L347.473 30.2822C345.254 39.4273 338.619 44 327.567 44C323.042 44 319.126 43.1376 315.819 41.4121C312.556 39.6867 310.033 37.1845 308.249 33.9062C306.509 30.5847 305.639 26.6157 305.639 22C305.639 17.3845 306.509 13.4376 308.249 10.1592C310.033 6.83767 312.556 4.31338 315.819 2.58789C319.126 0.862402 323.042 0 327.567 0Z" fill="url(#paint11_linear_393_18147)"/>
<path fill-rule="evenodd" clip-rule="evenodd" d="M371.735 0C378.61 1.14896e-05 383.961 1.94108 387.79 5.82324C391.662 9.66246 393.599 15.0549 393.599 22C393.599 28.9451 391.662 34.3589 387.79 38.2412C383.961 42.0803 378.61 44 371.735 44C367.21 44 363.294 43.1376 359.987 41.4121C356.724 39.6867 354.201 37.1845 352.417 33.9062C350.677 30.5847 349.807 26.6157 349.807 22C349.807 17.3845 350.677 13.4375 352.417 10.1592C354.201 6.83768 356.724 4.31338 359.987 2.58789C363.294 0.862402 367.21 0 371.735 0ZM371.735 11.3232C369.516 11.3232 367.885 12.1866 366.841 13.9121C365.84 15.5945 365.34 18.2903 365.34 22C365.34 25.7098 365.84 28.4278 366.841 30.1533C367.885 31.8354 369.517 32.6768 371.735 32.6768C373.954 32.6767 375.564 31.8354 376.564 30.1533C377.565 28.4278 378.065 25.7098 378.065 22C378.065 18.2903 377.565 15.5945 376.564 13.9121C375.564 12.1866 373.954 11.3233 371.735 11.3232Z" fill="url(#paint12_linear_393_18147)"/>
<path d="M35.6992 11.7119H15.207V17.665H31.7832V28.7295H15.207V43.3525H0V0.647461H35.6992V11.7119Z" fill="url(#paint13_linear_393_18147)"/>
<path fill-rule="evenodd" clip-rule="evenodd" d="M63.4531 0.647461C69.1964 0.647461 73.5263 1.85482 76.4414 4.27051C79.4 6.64306 80.8789 10.2022 80.8789 14.9473C80.8788 21.2021 78.2899 25.4076 73.1123 27.5645L82.5605 42.2158L96.1562 0.647461H114.43L128.462 43.3525H112.929L110.971 35.2002H99.3535L97.3311 43.3525H66.7822L59.1465 29.1826H54.9688V43.3525H40.0889V0.647461H63.4531ZM103.4 18.8291L101.638 25.8174H108.752L105.293 11.582H105.098L103.4 18.8291ZM54.9688 19.2822H60.3857C62.3001 19.2822 63.6494 19.0022 64.4326 18.4414C65.2593 17.8375 65.6729 16.8016 65.6729 15.335C65.6728 13.9116 65.2592 12.8978 64.4326 12.2939C63.6494 11.69 62.3001 11.3887 60.3857 11.3887H54.9688V19.2822Z" fill="url(#paint14_linear_393_18147)"/>
<path d="M157.86 20.123L160.21 25.2998H160.34L160.079 16.5V0.647461H173.263V43.3525H156.816L146.504 23.9414L144.154 18.7002H144.024L144.285 27.5V43.3525H131.102V0.647461H147.549L157.86 20.123Z" fill="url(#paint15_linear_393_18147)"/>
<path d="M259.728 11.7119H239.17V17.0176H255.747V27.2412H239.17V32.2881H260.511V43.3525H223.963V0.647461H259.728V11.7119Z" fill="url(#paint16_linear_393_18147)"/>
<defs>
<linearGradient id="paint0_linear_393_18147" x1="-0.053482" y1="-21.3531" x2="419.851" y2="82.6029" gradientUnits="userSpaceOnUse">
<stop stop-color="#66FFBC"/>
<stop offset="1" stop-color="#F4FFA0"/>
</linearGradient>
<linearGradient id="paint1_linear_393_18147" x1="-0.053482" y1="-21.3531" x2="419.851" y2="82.6029" gradientUnits="userSpaceOnUse">
<stop stop-color="#66FFBC"/>
<stop offset="1" stop-color="#F4FFA0"/>
</linearGradient>
<linearGradient id="paint2_linear_393_18147" x1="-0.053482" y1="-21.3531" x2="419.851" y2="82.6029" gradientUnits="userSpaceOnUse">
<stop stop-color="#66FFBC"/>
<stop offset="1" stop-color="#F4FFA0"/>
</linearGradient>
<linearGradient id="paint3_linear_393_18147" x1="-0.053482" y1="-21.3531" x2="419.851" y2="82.6029" gradientUnits="userSpaceOnUse">
<stop stop-color="#66FFBC"/>
<stop offset="1" stop-color="#F4FFA0"/>
</linearGradient>
<linearGradient id="paint4_linear_393_18147" x1="-0.053482" y1="-21.3531" x2="419.851" y2="82.6029" gradientUnits="userSpaceOnUse">
<stop stop-color="#66FFBC"/>
<stop offset="1" stop-color="#F4FFA0"/>
</linearGradient>
<linearGradient id="paint5_linear_393_18147" x1="-0.053482" y1="-21.3531" x2="419.851" y2="82.6029" gradientUnits="userSpaceOnUse">
<stop stop-color="#66FFBC"/>
<stop offset="1" stop-color="#F4FFA0"/>
</linearGradient>
<linearGradient id="paint6_linear_393_18147" x1="-0.053482" y1="-21.3531" x2="419.851" y2="82.6029" gradientUnits="userSpaceOnUse">
<stop stop-color="#66FFBC"/>
<stop offset="1" stop-color="#F4FFA0"/>
</linearGradient>
<linearGradient id="paint7_linear_393_18147" x1="-0.053482" y1="-21.3531" x2="419.851" y2="82.6029" gradientUnits="userSpaceOnUse">
<stop stop-color="#66FFBC"/>
<stop offset="1" stop-color="#F4FFA0"/>
</linearGradient>
<linearGradient id="paint8_linear_393_18147" x1="-0.053482" y1="-21.3531" x2="419.851" y2="82.6029" gradientUnits="userSpaceOnUse">
<stop stop-color="#66FFBC"/>
<stop offset="1" stop-color="#F4FFA0"/>
</linearGradient>
<linearGradient id="paint9_linear_393_18147" x1="-0.053482" y1="-21.3531" x2="419.851" y2="82.6029" gradientUnits="userSpaceOnUse">
<stop stop-color="#66FFBC"/>
<stop offset="1" stop-color="#F4FFA0"/>
</linearGradient>
<linearGradient id="paint10_linear_393_18147" x1="-0.053482" y1="-21.3531" x2="419.851" y2="82.6029" gradientUnits="userSpaceOnUse">
<stop stop-color="#66FFBC"/>
<stop offset="1" stop-color="#F4FFA0"/>
</linearGradient>
<linearGradient id="paint11_linear_393_18147" x1="-0.053482" y1="-21.3531" x2="419.851" y2="82.6029" gradientUnits="userSpaceOnUse">
<stop stop-color="#66FFBC"/>
<stop offset="1" stop-color="#F4FFA0"/>
</linearGradient>
<linearGradient id="paint12_linear_393_18147" x1="-0.053482" y1="-21.3531" x2="419.851" y2="82.6029" gradientUnits="userSpaceOnUse">
<stop stop-color="#66FFBC"/>
<stop offset="1" stop-color="#F4FFA0"/>
</linearGradient>
<linearGradient id="paint13_linear_393_18147" x1="-0.053482" y1="-21.3531" x2="419.851" y2="82.6029" gradientUnits="userSpaceOnUse">
<stop stop-color="#66FFBC"/>
<stop offset="1" stop-color="#F4FFA0"/>
</linearGradient>
<linearGradient id="paint14_linear_393_18147" x1="-0.053482" y1="-21.3531" x2="419.851" y2="82.6029" gradientUnits="userSpaceOnUse">
<stop stop-color="#66FFBC"/>
<stop offset="1" stop-color="#F4FFA0"/>
</linearGradient>
<linearGradient id="paint15_linear_393_18147" x1="-0.053482" y1="-21.3531" x2="419.851" y2="82.6029" gradientUnits="userSpaceOnUse">
<stop stop-color="#66FFBC"/>
<stop offset="1" stop-color="#F4FFA0"/>
</linearGradient>
<linearGradient id="paint16_linear_393_18147" x1="-0.053482" y1="-21.3531" x2="419.851" y2="82.6029" gradientUnits="userSpaceOnUse">
<stop stop-color="#66FFBC"/>
<stop offset="1" stop-color="#F4FFA0"/>
</linearGradient>
</defs>
</svg>
