<svg width="195" height="195" viewBox="0 0 195 195" fill="none" xmlns="http://www.w3.org/2000/svg">
<path fill-rule="evenodd" clip-rule="evenodd" d="M179 0C187.837 0 195 7.16344 195 16V179C195 187.837 187.837 195 179 195H16C7.16344 195 2.698e-07 187.837 0 179V16C0 7.16344 7.16344 2.69783e-07 16 0H179ZM145.88 72.9541C139.66 70.9516 133.1 70.4104 126.58 71.1914C120.81 71.8823 115.6 74.145 111.08 77.6494C108.07 79.9824 106.08 82.6462 103.8 86.1406L103.68 73.1641H76.0605V166.073L104.811 166.093V119.453C104.881 110.251 106.48 99.6573 116.11 97.0039C123.33 95.0115 131.57 96.2237 134.86 103.543H134.87C137.04 108.379 137.12 113.565 137.26 118.952V166.083H166.01V111.943C165.65 95.953 162.73 78.3911 145.88 72.9541ZM29.0596 73.1543V166.083L57.8701 166.053V73.1543H29.0596ZM43.5 27C34.2768 27 26.7998 34.477 26.7998 43.7002C26.7999 52.9233 34.2769 60.4004 43.5 60.4004C52.723 60.4003 60.2001 52.9232 60.2002 43.7002C60.2002 34.4771 52.7231 27.0001 43.5 27Z" fill="#1BF294"/>
</svg>
