<svg width="24" height="24" viewBox="0 0 24 24" fill="none" xmlns="http://www.w3.org/2000/svg">
<g clip-path="url(#clip0_387_18168)">
<path d="M12.2119 6.2795L14.3029 8.3715L19.5329 4.1875" stroke="black" stroke-width="1.5" stroke-linecap="round" stroke-linejoin="round"/>
<path d="M2.85231 17.8713C2.2897 17.3087 1.97363 16.5456 1.97363 15.75C1.97363 14.9544 2.2897 14.1913 2.85231 13.6287C3.41492 13.0661 4.17798 12.75 4.97363 12.75C5.76928 12.75 6.53234 13.0661 7.09495 13.6287C7.65756 14.1913 7.97363 14.9544 7.97363 15.75C7.97363 16.5456 7.65756 17.3087 7.09495 17.8713C6.53234 18.4339 5.76928 18.75 4.97363 18.75C4.17798 18.75 3.41492 18.4339 2.85231 17.8713Z" stroke="black" stroke-width="1.5" stroke-linecap="round" stroke-linejoin="round"/>
<path d="M9.2 23.2502C8.89402 22.3736 8.32295 21.6139 7.56594 21.0763C6.80893 20.5388 5.90346 20.25 4.975 20.25C4.04654 20.25 3.14107 20.5388 2.38406 21.0763C1.62705 21.6139 1.05598 22.3736 0.75 23.2502" stroke="black" stroke-width="1.5" stroke-linecap="round" stroke-linejoin="round"/>
<path d="M21.2399 14.5859C21.5252 15.2643 21.5512 16.0239 21.3129 16.7202C21.0747 17.4165 20.5888 18.0009 19.9477 18.3623C19.3067 18.7237 18.5551 18.8369 17.8361 18.6803C17.117 18.5237 16.4806 18.1082 16.0479 17.5129" stroke="black" stroke-width="1.5" stroke-linecap="round" stroke-linejoin="round"/>
<path d="M22.7 23.2508C22.3942 22.3741 21.8233 21.6142 21.0664 21.0766C20.3094 20.5389 19.404 20.25 18.4755 20.25C17.547 20.25 16.6415 20.5389 15.8846 21.0766C15.1276 21.6142 14.5567 22.3741 14.251 23.2508" stroke="black" stroke-width="1.5" stroke-linecap="round" stroke-linejoin="round"/>
<path d="M21.75 0.75C22.1478 0.75 22.5294 0.908035 22.8107 1.18934C23.092 1.47064 23.25 1.85218 23.25 2.25V10.5C23.25 10.8978 23.092 11.2794 22.8107 11.5607C22.5294 11.842 22.1478 12 21.75 12H17.25L12.75 16.5V12H9.75C9.35218 12 8.97064 11.842 8.68934 11.5607C8.40804 11.2794 8.25 10.8978 8.25 10.5V2.25C8.25 1.85218 8.40804 1.47064 8.68934 1.18934C8.97064 0.908035 9.35218 0.75 9.75 0.75H21.75Z" stroke="black" stroke-width="1.5" stroke-linecap="round" stroke-linejoin="round"/>
</g>
<defs>
<clipPath id="clip0_387_18168">
<rect width="24" height="24" fill="white"/>
</clipPath>
</defs>
</svg>
