<svg width="24" height="24" viewBox="0 0 24 24" fill="none" xmlns="http://www.w3.org/2000/svg">
<g clip-path="url(#clip0_387_18175)">
<path d="M20.0004 0.75C20.0004 0.75 20.0004 2.51 22.2404 4.9C22.3404 5 22.5104 5.2 22.5904 5.3C22.9009 5.70973 23.1097 6.18727 23.1998 6.6934C23.2899 7.19954 23.2587 7.71983 23.1086 8.21153C22.9586 8.70324 22.694 9.15234 22.3367 9.52195C21.9794 9.89155 21.5395 10.1711 21.0531 10.3377C20.5668 10.5042 20.0478 10.553 19.5389 10.4801C19.03 10.4071 18.5457 10.2145 18.1257 9.918C17.7058 9.62151 17.3621 9.22961 17.123 8.7745C16.8839 8.3194 16.7562 7.81406 16.7504 7.3C16.7032 6.02384 16.9758 4.75613 17.5434 3.61218C18.111 2.46823 18.9556 1.48434 20.0004 0.75Z" stroke="black" stroke-width="1.5" stroke-linecap="round" stroke-linejoin="round"/>
<path d="M20.0001 23.2522C20.331 23.2518 20.6584 23.1831 20.9615 23.0501C21.2646 22.9172 21.5369 22.723 21.7614 22.4798C21.9858 22.2365 22.1576 21.9495 22.2658 21.6367C22.374 21.3239 22.4163 20.9921 22.3901 20.6622L21.2701 10.2422C20.8633 10.4201 20.4241 10.5119 19.9801 10.5119C19.5361 10.5119 19.0969 10.4201 18.6901 10.2422L17.6101 20.6622C17.5839 20.9921 17.6262 21.3239 17.7344 21.6367C17.8426 21.9495 18.0143 22.2365 18.2387 22.4798C18.4632 22.723 18.7355 22.9172 19.0387 23.0501C19.3418 23.1831 19.6691 23.2518 20.0001 23.2522Z" stroke="black" stroke-width="1.5" stroke-linecap="round" stroke-linejoin="round"/>
<path d="M8.75 5.32812L11.25 7.49813L13.75 5.32812" stroke="black" stroke-width="1.5" stroke-linecap="round" stroke-linejoin="round"/>
<path d="M8.75 18H13.75" stroke="black" stroke-width="1.5" stroke-linecap="round" stroke-linejoin="round"/>
<path d="M8.75 14H13.75" stroke="black" stroke-width="1.5" stroke-linecap="round" stroke-linejoin="round"/>
<path d="M5.75 18.67L3.25 23.25L0.75 18.67V3.25C0.75 2.58696 1.01339 1.95107 1.48223 1.48223C1.95107 1.01339 2.58696 0.75 3.25 0.75C3.5783 0.75 3.90339 0.814664 4.20671 0.940301C4.51002 1.06594 4.78562 1.25009 5.01777 1.48223C5.24991 1.71438 5.43406 1.98998 5.5597 2.29329C5.68534 2.59661 5.75 2.9217 5.75 3.25V18.67Z" stroke="black" stroke-width="1.5" stroke-linecap="round" stroke-linejoin="round"/>
<path d="M0.75 16.75H5.75" stroke="black" stroke-width="1.5" stroke-linecap="round" stroke-linejoin="round"/>
<path d="M0.75 5.60938H5.75" stroke="black" stroke-width="1.5" stroke-linecap="round" stroke-linejoin="round"/>
<path d="M8.75 5.33L11.25 0.75L13.75 5.33V20.75C13.75 21.413 13.4866 22.0489 13.0178 22.5178C12.5489 22.9866 11.913 23.25 11.25 23.25C10.587 23.25 9.95107 22.9866 9.48223 22.5178C9.01339 22.0489 8.75 21.413 8.75 20.75V5.33Z" stroke="black" stroke-width="1.5" stroke-linecap="round" stroke-linejoin="round"/>
</g>
<defs>
<clipPath id="clip0_387_18175">
<rect width="24" height="24" fill="white"/>
</clipPath>
</defs>
</svg>
