<svg width="24" height="24" viewBox="0 0 24 24" fill="none" xmlns="http://www.w3.org/2000/svg">
<g clip-path="url(#clip0_389_18277)">
<path d="M6.05045 10.4963C6.9119 9.28441 8.01935 8.26793 9.30045 7.51328C9.14264 7.02273 9.05839 6.51152 9.05045 5.99628C9.04498 5.1841 9.22803 4.38173 9.58519 3.65228C9.94235 2.92283 10.4639 2.28619 11.1088 1.79244C11.7536 1.29869 12.5043 0.961298 13.3017 0.806799C14.099 0.6523 14.9214 0.684908 15.704 0.902059C16.4866 1.11921 17.2082 1.51498 17.812 2.05824C18.4157 2.6015 18.8852 3.27744 19.1835 4.03288C19.4818 4.78832 19.6007 5.60267 19.5309 6.41186C19.4612 7.22105 19.2046 8.00303 18.7815 8.69628C19.3245 10.0263 19.6235 12.4283 17.3005 15.7463C12.9745 21.9263 6.10045 23.0143 3.81745 23.2053C3.71606 23.2143 3.6139 23.2026 3.51717 23.1709C3.42044 23.1393 3.33115 23.0882 3.25474 23.021C3.17833 22.9538 3.11639 22.8717 3.07267 22.7798C3.02896 22.6878 3.00439 22.588 3.00045 22.4863C2.92845 20.4493 3.02045 14.7383 6.05045 10.4963Z" stroke="black" stroke-width="1.5" stroke-linecap="round" stroke-linejoin="round"/>
<path d="M14.2998 6.75V8.25" stroke="black" stroke-width="1.5" stroke-linecap="round" stroke-linejoin="round"/>
<path d="M20.2998 0.75C17.2998 0.75 14.2998 4.5 14.2998 4.5C14.2998 4.5 10.5498 0.75 7.5498 0.75" stroke="black" stroke-width="1.5" stroke-linecap="round" stroke-linejoin="round"/>
<path d="M11.2998 12.75C11.2998 12.75 8.14383 15.117 8.30583 22.28" stroke="black" stroke-width="1.5" stroke-linecap="round" stroke-linejoin="round"/>
<path d="M13.4131 19.7031L14.3001 23.2521" stroke="black" stroke-width="1.5" stroke-linecap="round" stroke-linejoin="round"/>
<path d="M12.7998 23.25H16.5498" stroke="black" stroke-width="1.5" stroke-linecap="round" stroke-linejoin="round"/>
</g>
<defs>
<clipPath id="clip0_389_18277">
<rect width="24" height="24" fill="white"/>
</clipPath>
</defs>
</svg>
