<svg width="24" height="24" viewBox="0 0 24 24" fill="none" xmlns="http://www.w3.org/2000/svg">
<g clip-path="url(#clip0_389_18290)">
<path d="M0.75 12C0.75 12.6962 1.02656 13.3639 1.51884 13.8562C2.01113 14.3484 2.67881 14.625 3.375 14.625C4.07119 14.625 4.73887 14.3484 5.23116 13.8562C5.72344 13.3639 6 12.6962 6 12C6 11.3038 5.72344 10.6361 5.23116 10.1438C4.73887 9.65156 4.07119 9.375 3.375 9.375C2.67881 9.375 2.01113 9.65156 1.51884 10.1438C1.02656 10.6361 0.75 11.3038 0.75 12Z" stroke="black" stroke-width="1.5" stroke-linecap="round" stroke-linejoin="round"/>
<path d="M23.154 21.224L18.654 9.224C18.5469 8.93789 18.3549 8.69131 18.1038 8.51725C17.8528 8.34319 17.5545 8.24995 17.249 8.25H9.75V2.25C9.75 1.85218 9.59196 1.47064 9.31066 1.18934C9.02936 0.908035 8.64782 0.75 8.25 0.75C7.85218 0.75 7.47064 0.908035 7.18934 1.18934C6.90804 1.47064 6.75 1.85218 6.75 2.25V21.75C6.75 22.1478 6.90804 22.5294 7.18934 22.8107C7.47064 23.092 7.85218 23.25 8.25 23.25C8.64782 23.25 9.02936 23.092 9.31066 22.8107C9.59196 22.5294 9.75 22.1478 9.75 21.75V14.25H14.273L12.073 21.304C12.0061 21.4941 11.9783 21.6957 11.991 21.8968C12.0038 22.0979 12.057 22.2943 12.1473 22.4744C12.2377 22.6545 12.3634 22.8146 12.517 22.945C12.6706 23.0754 12.8489 23.1736 13.0412 23.2336C13.2336 23.2936 13.4361 23.3143 13.6366 23.2943C13.8371 23.2744 14.0315 23.2142 14.2083 23.1175C14.385 23.0207 14.5405 22.8894 14.6653 22.7312C14.7902 22.5731 14.8819 22.3914 14.935 22.197L17.383 14.366L20.349 22.278C20.4889 22.6505 20.771 22.9522 21.1334 23.1166C21.4957 23.2811 21.9085 23.2949 22.281 23.155C22.6535 23.0151 22.9552 22.733 23.1196 22.3706C23.2841 22.0083 23.2979 21.5955 23.158 21.223L23.154 21.224Z" stroke="black" stroke-width="1.5" stroke-linecap="round" stroke-linejoin="round"/>
</g>
<defs>
<clipPath id="clip0_389_18290">
<rect width="24" height="24" fill="white"/>
</clipPath>
</defs>
</svg>
