<svg width="24" height="24" viewBox="0 0 24 24" fill="none" xmlns="http://www.w3.org/2000/svg">
<g clip-path="url(#clip0_387_18187)">
<path d="M8.52539 3.85938L15.7504 6.74938L22.9754 3.85938" stroke="black" stroke-width="1.5" stroke-linecap="round" stroke-linejoin="round"/>
<path d="M15.75 16.497C16.2441 16.4986 16.7329 16.3964 17.185 16.197L22.359 13.897C22.6242 13.7792 22.8496 13.5869 23.0077 13.3436C23.1659 13.1002 23.25 12.8162 23.25 12.526V4.72603C23.25 4.43581 23.1659 4.15179 23.0077 3.90845C22.8496 3.6651 22.6242 3.47286 22.359 3.35503L17.185 1.05502C16.7333 0.853922 16.2444 0.75 15.75 0.75C15.2556 0.75 14.7667 0.853922 14.315 1.05502L9.141 3.35503C8.87639 3.47259 8.65146 3.6642 8.49336 3.90677C8.33526 4.14934 8.25074 4.43248 8.25 4.72202V7.49703" stroke="black" stroke-width="1.5" stroke-linecap="round" stroke-linejoin="round"/>
<path d="M8.25 13.5V23.25" stroke="black" stroke-width="1.5" stroke-linecap="round" stroke-linejoin="round"/>
<path d="M1.02539 10.6094L8.25039 13.4994L15.4754 10.6094" stroke="black" stroke-width="1.5" stroke-linecap="round" stroke-linejoin="round"/>
<path d="M6.81501 22.947C7.26668 23.1481 7.75558 23.252 8.25001 23.252C8.74443 23.252 9.23333 23.1481 9.68501 22.947L14.859 20.647C15.1242 20.5292 15.3496 20.3369 15.5077 20.0936C15.6659 19.8502 15.75 19.5662 15.75 19.276V11.476C15.75 11.1858 15.6659 10.9018 15.5077 10.6584C15.3496 10.4151 15.1242 10.2228 14.859 10.105L9.68501 7.80503C9.23333 7.60392 8.74443 7.5 8.25001 7.5C7.75558 7.5 7.26668 7.60392 6.81501 7.80503L1.64101 10.102C1.37515 10.2201 1.14938 10.413 0.991185 10.6571C0.832989 10.9012 0.749194 11.1861 0.750006 11.477V19.277C0.749969 19.5672 0.834127 19.8512 0.992278 20.0946C1.15043 20.3379 1.37578 20.5302 1.64101 20.648L6.81501 22.947Z" stroke="black" stroke-width="1.5" stroke-linecap="round" stroke-linejoin="round"/>
<path d="M3 14.4688C2.79289 14.4688 2.625 14.3009 2.625 14.0938C2.625 13.8866 2.79289 13.7188 3 13.7188" stroke="black" stroke-width="1.5"/>
<path d="M3 14.4688C3.20711 14.4688 3.375 14.3009 3.375 14.0938C3.375 13.8866 3.20711 13.7188 3 13.7188" stroke="black" stroke-width="1.5"/>
<path d="M4.125 17.0938C3.91789 17.0938 3.75 16.9259 3.75 16.7188C3.75 16.5116 3.91789 16.3438 4.125 16.3438" stroke="black" stroke-width="1.5"/>
<path d="M4.125 17.0938C4.3321 17.0938 4.5 16.9259 4.5 16.7188C4.5 16.5116 4.3321 16.3438 4.125 16.3438" stroke="black" stroke-width="1.5"/>
<path d="M5.625 20.0938C5.41789 20.0938 5.25 19.9259 5.25 19.7188C5.25 19.5116 5.41789 19.3438 5.625 19.3438" stroke="black" stroke-width="1.5"/>
<path d="M5.625 20.0938C5.83211 20.0938 6 19.9259 6 19.7188C6 19.5116 5.83211 19.3438 5.625 19.3438" stroke="black" stroke-width="1.5"/>
<path d="M11.3643 19.1797C11.1572 19.1797 10.9893 19.0118 10.9893 18.8047C10.9893 18.5976 11.1572 18.4297 11.3643 18.4297" stroke="black" stroke-width="1.5"/>
<path d="M11.3643 19.1797C11.5714 19.1797 11.7393 19.0118 11.7393 18.8047C11.7393 18.5976 11.5714 18.4297 11.3643 18.4297" stroke="black" stroke-width="1.5"/>
<path d="M12.9775 15.3203C12.7704 15.3203 12.6025 15.1524 12.6025 14.9453C12.6025 14.7382 12.7704 14.5703 12.9775 14.5703" stroke="black" stroke-width="1.5"/>
<path d="M12.9775 15.3203C13.1846 15.3203 13.3525 15.1524 13.3525 14.9453C13.3525 14.7382 13.1846 14.5703 12.9775 14.5703" stroke="black" stroke-width="1.5"/>
<path d="M8.25 10.8828C8.04289 10.8828 7.875 10.7149 7.875 10.5078C7.875 10.3007 8.04289 10.1328 8.25 10.1328" stroke="black" stroke-width="1.5"/>
<path d="M8.25 10.8828C8.45711 10.8828 8.625 10.7149 8.625 10.5078C8.625 10.3007 8.45711 10.1328 8.25 10.1328" stroke="black" stroke-width="1.5"/>
<path d="M15.75 3.97656C15.5429 3.97656 15.375 3.80866 15.375 3.60156C15.375 3.39445 15.5429 3.22656 15.75 3.22656" stroke="black" stroke-width="1.5"/>
<path d="M15.75 3.97656C15.9571 3.97656 16.125 3.80866 16.125 3.60156C16.125 3.39445 15.9571 3.22656 15.75 3.22656" stroke="black" stroke-width="1.5"/>
<path d="M20.625 8.29688C20.4179 8.29688 20.25 8.12899 20.25 7.92188C20.25 7.71476 20.4179 7.54688 20.625 7.54688" stroke="black" stroke-width="1.5"/>
<path d="M20.625 8.29688C20.8321 8.29688 21 8.12899 21 7.92188C21 7.71476 20.8321 7.54688 20.625 7.54688" stroke="black" stroke-width="1.5"/>
<path d="M20.625 12.0469C20.4179 12.0469 20.25 11.879 20.25 11.6719C20.25 11.4648 20.4179 11.2969 20.625 11.2969" stroke="black" stroke-width="1.5"/>
<path d="M20.625 12.0469C20.8321 12.0469 21 11.879 21 11.6719C21 11.4648 20.8321 11.2969 20.625 11.2969" stroke="black" stroke-width="1.5"/>
</g>
<defs>
<clipPath id="clip0_387_18187">
<rect width="24" height="24" fill="white"/>
</clipPath>
</defs>
</svg>
