<svg width="24" height="24" viewBox="0 0 24 24" fill="none" xmlns="http://www.w3.org/2000/svg">
<path d="M19.5679 17.21C20.7568 15.6198 21.4148 13.6956 21.4485 11.7104C21.4823 9.72515 20.8901 7.7797 19.7559 6.15L17.0559 9.111C16.1581 6.37528 16.2731 3.40804 17.3799 0.75C15.3178 0.854497 13.3172 1.48687 11.5697 2.58651C9.82216 3.68614 8.38637 5.21619 7.39991 7.03L5.24991 4.937C3.72158 6.49693 2.78064 8.53801 2.58703 10.7133C2.39343 12.8885 2.9591 15.0637 4.18791 16.869" stroke="black" stroke-width="1.5" stroke-linecap="round" stroke-linejoin="round"/>
<path d="M4.9502 21.375C4.9502 21.6212 4.99869 21.865 5.09292 22.0925C5.18715 22.32 5.32526 22.5267 5.49937 22.7008C5.67348 22.8749 5.88018 23.013 6.10766 23.1073C6.33515 23.2015 6.57897 23.25 6.8252 23.25C7.07142 23.25 7.31524 23.2015 7.54273 23.1073C7.77021 23.013 7.97691 22.8749 8.15102 22.7008C8.32513 22.5267 8.46324 22.32 8.55747 22.0925C8.6517 21.865 8.7002 21.6212 8.7002 21.375C8.7002 20.8777 8.50265 20.4008 8.15102 20.0492C7.79939 19.6975 7.32248 19.5 6.8252 19.5C6.32791 19.5 5.851 19.6975 5.49937 20.0492C5.14774 20.4008 4.9502 20.8777 4.9502 21.375Z" stroke="black" stroke-width="1.5" stroke-linecap="round" stroke-linejoin="round"/>
<path d="M12.4502 19.125C12.4502 19.3712 12.4987 19.615 12.5929 19.8425C12.6871 20.07 12.8253 20.2767 12.9994 20.4508C13.1735 20.6249 13.3802 20.763 13.6077 20.8573C13.8351 20.9515 14.079 21 14.3252 21C14.5714 21 14.8152 20.9515 15.0427 20.8573C15.2702 20.763 15.4769 20.6249 15.651 20.4508C15.8251 20.2767 15.9632 20.07 16.0575 19.8425C16.1517 19.615 16.2002 19.3712 16.2002 19.125C16.2002 18.8788 16.1517 18.635 16.0575 18.4075C15.9632 18.18 15.8251 17.9733 15.651 17.7992C15.4769 17.6251 15.2702 17.487 15.0427 17.3927C14.8152 17.2985 14.5714 17.25 14.3252 17.25C14.079 17.25 13.8351 17.2985 13.6077 17.3927C13.3802 17.487 13.1735 17.6251 12.9994 17.7992C12.8253 17.9733 12.6871 18.18 12.5929 18.4075C12.4987 18.635 12.4502 18.8788 12.4502 19.125Z" stroke="black" stroke-width="1.5" stroke-linecap="round" stroke-linejoin="round"/>
<path d="M8.7002 21.372V14.578C8.70022 14.2631 8.79933 13.9563 8.98348 13.7009C9.16762 13.4455 9.42747 13.2545 9.7262 13.155L14.2262 11.905C14.4517 11.8299 14.6917 11.8094 14.9266 11.8453C15.1616 11.8812 15.3846 11.9724 15.5774 12.1113C15.7701 12.2503 15.9271 12.4331 16.0354 12.6446C16.1437 12.8561 16.2002 13.0904 16.2002 13.328V19.122" stroke="black" stroke-width="1.5" stroke-linecap="round" stroke-linejoin="round"/>
</svg>
