<svg width="24" height="24" viewBox="0 0 24 24" fill="none" xmlns="http://www.w3.org/2000/svg">
<g clip-path="url(#clip0_387_18215)">
<path d="M13.4932 19.072C14.0794 19.3571 14.7233 19.5036 15.3752 19.5C16.0105 19.4945 16.6378 19.3585 17.2184 19.1004C17.799 18.8424 18.3203 18.4679 18.7502 18C19.3412 18.5693 20.052 18.9994 20.8305 19.2589C21.6091 19.5184 22.4357 19.6008 23.2502 19.5" stroke="black" stroke-width="1.5" stroke-linecap="round" stroke-linejoin="round"/>
<path d="M11.1342 8.47656L10.3672 23.2376" stroke="black" stroke-width="1.5" stroke-linecap="round" stroke-linejoin="round"/>
<path d="M4.28809 23.2466L9.23409 7.85156" stroke="black" stroke-width="1.5" stroke-linecap="round" stroke-linejoin="round"/>
<path d="M17.5104 10.5603L9.23438 7.85131L9.63538 7.18431C9.63538 7.18431 11.1354 4.93431 14.8854 5.68431C15.8231 5.90684 16.6705 6.41065 17.3139 7.12824C17.9573 7.84583 18.3661 8.74292 18.4854 9.69931C18.5115 9.82851 18.5032 9.96233 18.4613 10.0873C18.4193 10.2123 18.3452 10.324 18.2464 10.4113C18.1476 10.4985 18.0276 10.5582 17.8984 10.5844C17.7692 10.6106 17.6353 10.6023 17.5104 10.5603Z" stroke="black" stroke-width="1.5" stroke-linecap="round" stroke-linejoin="round"/>
<path d="M9.23403 7.85361L1.70002 9.89861C1.57631 9.93243 1.446 9.93401 1.32151 9.90319C1.19702 9.87237 1.08249 9.81018 0.988845 9.72255C0.8952 9.63492 0.825556 9.52477 0.786551 9.4026C0.747546 9.28042 0.740479 9.15029 0.766025 9.02461C0.875942 8.05433 1.28198 7.14143 1.92895 6.41001C2.57591 5.6786 3.43242 5.16415 4.38202 4.93661C6.56402 4.49961 8.65502 4.93661 9.91002 6.86161" stroke="black" stroke-width="1.5" stroke-linecap="round" stroke-linejoin="round"/>
<path d="M14.0783 5.56897L17.1783 2.45197C17.2646 2.36741 17.3291 2.26319 17.3662 2.14823C17.4034 2.03328 17.4121 1.91102 17.3917 1.79195C17.3712 1.67288 17.3222 1.56054 17.2488 1.46458C17.1754 1.36861 17.0798 1.29188 16.9703 1.24097C16.1583 0.845799 15.2524 0.684216 14.3539 0.77428C13.4554 0.864343 12.5996 1.2025 11.8823 1.75097C10.1823 3.02397 10.3823 5.68897 10.3823 5.68897V6.45797" stroke="black" stroke-width="1.5" stroke-linecap="round" stroke-linejoin="round"/>
<path d="M5.67919 4.78451L3.72919 2.66751C3.63883 2.57058 3.57584 2.45138 3.54667 2.32211C3.5175 2.19284 3.52319 2.05815 3.56317 1.9318C3.60315 1.80546 3.67598 1.692 3.7742 1.60304C3.87242 1.51408 3.99252 1.45282 4.12219 1.42551C4.94932 1.26608 5.78984 1.18638 6.63219 1.18751C7.45259 1.26228 8.24249 1.53549 8.93377 1.98356C9.62505 2.43164 10.197 3.04115 10.6002 3.75951" stroke="black" stroke-width="1.5" stroke-linecap="round" stroke-linejoin="round"/>
<path d="M0.75 23.25H23.25" stroke="black" stroke-width="1.5" stroke-linecap="round" stroke-linejoin="round"/>
</g>
<defs>
<clipPath id="clip0_387_18215">
<rect width="24" height="24" fill="white"/>
</clipPath>
</defs>
</svg>
