<svg width="24" height="24" viewBox="0 0 24 24" fill="none" xmlns="http://www.w3.org/2000/svg">
<g clip-path="url(#clip0_389_18271)">
<path d="M16.4486 8.36569C16.5529 7.52902 16.4781 6.67975 16.2294 5.87414C15.9806 5.06854 15.5635 4.32501 15.0056 3.69282C14.4477 3.06063 13.7619 2.55422 12.9935 2.20716C12.2251 1.86009 11.3917 1.6803 10.5486 1.67969H0.880592C0.880592 1.67969 0.136592 5.39769 3.11059 6.14069H0.880592C0.880592 6.14069 0.136592 9.85869 3.11059 10.5977V20.2677C3.12294 20.8511 3.36337 21.4064 3.78032 21.8146C4.19728 22.2229 4.75757 22.4515 5.34109 22.4515C5.92461 22.4515 6.4849 22.2229 6.90186 21.8146C7.31881 21.4064 7.55924 20.8511 7.57159 20.2677C7.58394 20.8511 7.82437 21.4064 8.24132 21.8146C8.65828 22.2229 9.21857 22.4515 9.80209 22.4515C10.3856 22.4515 10.9459 22.2229 11.3628 21.8146C11.7798 21.4064 12.0202 20.8511 12.0326 20.2677C12.0449 20.8511 12.2853 21.4064 12.7023 21.8146C13.1192 22.2229 13.6795 22.4515 14.2631 22.4515C14.8466 22.4515 15.4069 22.2229 15.8238 21.8146C16.2408 21.4064 16.4812 20.8511 16.4936 20.2677V14.3197" stroke="black" stroke-width="1.5" stroke-linecap="round" stroke-linejoin="round"/>
<path d="M16.4943 8.37127H19.4683C21.6983 8.37127 23.1853 9.85827 23.1853 13.5713V14.3153C23.1857 14.454 23.1473 14.5901 23.0743 14.7081C23.0014 14.8261 22.8968 14.9213 22.7724 14.9828C22.6481 15.0444 22.509 15.0698 22.3709 15.0563C22.2328 15.0427 22.1013 14.9908 21.9913 14.9063C21.481 14.5153 20.8541 14.3071 20.2113 14.3153H14.2633C12.0333 14.3153 12.0333 10.5973 14.2633 10.5973C14.2208 10.2946 14.2493 9.98621 14.3465 9.69644C14.4437 9.40667 14.607 9.14346 14.8233 8.92759C15.0397 8.71172 15.3032 8.54909 15.5932 8.45254C15.8832 8.356 16.1917 8.32817 16.4943 8.37127Z" stroke="black" stroke-width="1.5" stroke-linecap="round" stroke-linejoin="round"/>
<path d="M9.43066 8.375C9.22355 8.375 9.05566 8.20711 9.05566 8C9.05566 7.7929 9.22355 7.625 9.43066 7.625" stroke="black" stroke-width="1.5"/>
<path d="M9.43066 8.375C9.63777 8.375 9.80566 8.20711 9.80566 8C9.80566 7.7929 9.63777 7.625 9.43066 7.625" stroke="black" stroke-width="1.5"/>
<path d="M12.7761 6.14325L8.31616 4.65625C7.68969 4.87229 7.14233 5.27108 6.74467 5.80118C6.34701 6.33127 6.11729 6.96835 6.08516 7.63025C6.07057 8.16568 6.1922 8.69605 6.43863 9.17162C6.68507 9.6472 7.04824 10.0524 7.4941 10.3492C7.93996 10.646 8.4539 10.8248 8.98773 10.8687C9.52156 10.9126 10.0578 10.8202 10.5461 10.6002" stroke="black" stroke-width="1.5" stroke-linecap="round" stroke-linejoin="round"/>
</g>
<defs>
<clipPath id="clip0_389_18271">
<rect width="24" height="24" fill="white"/>
</clipPath>
</defs>
</svg>
