<svg width="24" height="24" viewBox="0 0 24 24" fill="none" xmlns="http://www.w3.org/2000/svg">
<g clip-path="url(#clip0_387_18234)">
<path d="M16.5 21.75C13.9141 21.75 11.4342 20.7228 9.60571 18.8943C7.77723 17.0658 6.75 14.5859 6.75 12C6.75 9.41414 7.77723 6.93419 9.60571 5.10571C11.4342 3.27723 13.9141 2.25 16.5 2.25C16.5587 2.248 16.615 2.22649 16.6601 2.18889C16.7052 2.15129 16.7364 2.09974 16.7489 2.04239C16.7614 1.98503 16.7545 1.92514 16.7291 1.87219C16.7038 1.81924 16.6615 1.77624 16.609 1.75C15.1617 1.09149 13.5901 0.750513 12 0.75C9.01631 0.75 6.15483 1.93526 4.04505 4.04505C1.93526 6.15483 0.75 9.01631 0.75 12C0.75 14.9837 1.93526 17.8452 4.04505 19.955C6.15483 22.0647 9.01631 23.25 12 23.25C13.5901 23.2495 15.1617 22.9085 16.609 22.25C16.6615 22.2238 16.7038 22.1808 16.7291 22.1278C16.7545 22.0749 16.7614 22.015 16.7489 21.9576C16.7364 21.9003 16.7052 21.8487 16.6601 21.8111C16.615 21.7735 16.5587 21.752 16.5 21.75Z" stroke="black" stroke-width="1.5" stroke-linecap="round" stroke-linejoin="round"/>
<path d="M17.25 6.75V9.75" stroke="black" stroke-width="1.5" stroke-linecap="round" stroke-linejoin="round"/>
<path d="M15.75 8.25H18.75" stroke="black" stroke-width="1.5" stroke-linecap="round" stroke-linejoin="round"/>
<path d="M21.75 12.75V15.75" stroke="black" stroke-width="1.5" stroke-linecap="round" stroke-linejoin="round"/>
<path d="M20.25 14.25H23.25" stroke="black" stroke-width="1.5" stroke-linecap="round" stroke-linejoin="round"/>
<path d="M14.25 14.25V17.25" stroke="black" stroke-width="1.5" stroke-linecap="round" stroke-linejoin="round"/>
<path d="M12.75 15.75H15.75" stroke="black" stroke-width="1.5" stroke-linecap="round" stroke-linejoin="round"/>
</g>
<defs>
<clipPath id="clip0_387_18234">
<rect width="24" height="24" fill="white"/>
</clipPath>
</defs>
</svg>
