<svg width="24" height="24" viewBox="0 0 24 24" fill="none" xmlns="http://www.w3.org/2000/svg">
<path d="M12.7998 16.7531H14.3998C15.2998 16.7531 15.9998 16.0531 15.9998 15.1531C15.9998 14.2531 15.2998 13.5531 14.3998 13.5531H15.1999C16.0999 13.5531 16.7998 12.8532 16.7998 11.9532C16.7998 11.0532 16.0999 10.3532 15.1999 10.3532H14.3998H21.5999C22.4999 10.3532 23.1998 9.65306 23.1998 8.75306C23.1998 7.85306 22.4999 7.15308 21.5999 7.15308H11.9998C11.9998 5.35308 10.5998 3.95312 8.79981 3.95312C7.19981 3.95312 5.69981 4.45316 4.39981 5.35316L2.79981 6.5531C1.49981 7.4531 0.799805 8.95312 0.799805 10.4532V14.5531C0.799805 16.0531 1.39981 17.4532 2.39981 18.4532C3.39981 19.4532 4.79981 20.0531 6.29981 20.0531H12.8998C13.7998 20.0531 14.4998 19.3532 14.4998 18.4532C14.3998 17.4532 13.6998 16.7531 12.7998 16.7531Z" stroke="black" stroke-width="1.5" stroke-miterlimit="10" stroke-linecap="round" stroke-linejoin="round"/>
<path d="M12.0006 7.14062H9.60059" stroke="black" stroke-width="1.5" stroke-miterlimit="10" stroke-linecap="round" stroke-linejoin="round"/>
<path d="M12.8857 10.3516H14.4857" stroke="black" stroke-width="1.5" stroke-miterlimit="10" stroke-linecap="round" stroke-linejoin="round"/>
<path d="M12.7998 13.5469H14.3998" stroke="black" stroke-width="1.5" stroke-miterlimit="10" stroke-linecap="round" stroke-linejoin="round"/>
</svg>
