<svg width="24" height="24" viewBox="0 0 24 24" fill="none" xmlns="http://www.w3.org/2000/svg">
<g clip-path="url(#clip0_389_18265)">
<path d="M5.46843 19.455C4.40313 18.5789 3.5318 17.4907 2.90985 16.2596C2.28789 15.0285 1.92893 13.6815 1.85579 12.3041C1.78264 10.9268 1.99691 9.5493 2.48498 8.25926C2.97304 6.96922 3.72422 5.79486 4.69074 4.81087C5.65725 3.82687 6.81796 3.05477 8.09905 2.54366C9.38013 2.03255 10.7536 1.79362 12.132 1.84207C13.5104 1.89052 14.8637 2.22528 16.1057 2.82507C17.3478 3.42486 18.4514 4.27655 19.3464 5.32598" stroke="black" stroke-width="1.5" stroke-linecap="round" stroke-linejoin="round"/>
<path d="M21.7184 11.5469C21.7499 12.9035 21.5035 14.2521 20.9941 15.5099C20.4848 16.7676 19.7234 17.9078 18.7568 18.8601C17.7902 19.8125 16.6388 20.5569 15.3737 21.0475C14.1085 21.5381 12.7564 21.7646 11.4004 21.7129" stroke="black" stroke-width="1.5" stroke-linecap="round" stroke-linejoin="round"/>
<path d="M2.93917 16.3226C0.967165 19.3986 0.200165 21.8716 1.16317 22.8326C2.82617 24.4986 9.02517 20.9906 15.0102 15.0056C20.9952 9.02061 24.5002 2.82161 22.8372 1.15861C21.8802 0.198611 19.3932 0.985611 16.3362 2.93861" stroke="black" stroke-width="1.5" stroke-linecap="round" stroke-linejoin="round"/>
<path d="M1.84082 11.7789C4.05929 10.8442 6.06228 9.46405 7.72582 7.72394C9.46643 6.05945 10.8469 4.05544 11.7818 1.83594" stroke="black" stroke-width="1.5" stroke-linecap="round" stroke-linejoin="round"/>
<path d="M3.18164 16.7697C6.08373 15.2846 8.72435 13.3364 10.9996 11.0017C13.3356 8.72549 15.2845 6.08346 16.7696 3.17969" stroke="black" stroke-width="1.5" stroke-linecap="round" stroke-linejoin="round"/>
</g>
<defs>
<clipPath id="clip0_389_18265">
<rect width="24" height="24" fill="white"/>
</clipPath>
</defs>
</svg>
