<svg width="24" height="24" viewBox="0 0 24 24" fill="none" xmlns="http://www.w3.org/2000/svg">
<g clip-path="url(#clip0_389_18242)">
<path d="M10.5798 14.8569C10.2911 14.9301 9.98969 14.9379 9.69757 14.8797C9.40545 14.8215 9.13002 14.6988 8.89139 14.5205C8.65276 14.3423 8.45695 14.113 8.31828 13.8494C8.1796 13.5858 8.10156 13.2945 8.08984 12.9969V9.54688C8.18627 9.10001 8.43289 8.69966 8.78861 8.41251C9.14433 8.12537 9.58769 7.96875 10.0448 7.96875C10.502 7.96875 10.9454 8.12537 11.3011 8.41251C11.6568 8.69966 11.9034 9.10001 11.9998 9.54688V12.5469" stroke="black" stroke-width="1.5" stroke-linecap="round" stroke-linejoin="round"/>
<path d="M12 9.54688C12.0964 9.10001 12.343 8.69966 12.6988 8.41251C13.0545 8.12537 13.4978 7.96875 13.955 7.96875C14.4122 7.96875 14.8555 8.12537 15.2112 8.41251C15.567 8.69966 15.8136 9.10001 15.91 9.54688V12.4869" stroke="black" stroke-width="1.5" stroke-linecap="round" stroke-linejoin="round"/>
<path d="M19.8301 16.0905V2.71049C19.8891 2.42002 19.8828 2.12007 19.8116 1.83234C19.7405 1.54461 19.6062 1.27629 19.4187 1.0468C19.2311 0.817302 18.9948 0.632369 18.727 0.505374C18.4592 0.37838 18.1665 0.3125 17.8701 0.3125C17.5737 0.3125 17.281 0.37838 17.0132 0.505374C16.7454 0.632369 16.5091 0.817302 16.3216 1.0468C16.134 1.27629 15.9998 1.54461 15.9286 1.83234C15.8575 2.12007 15.8511 2.42002 15.9101 2.71049V9.5505" stroke="black" stroke-width="1.5" stroke-linecap="round" stroke-linejoin="round"/>
<path d="M11.9999 20.3067C11.9999 19.2697 12.4119 18.2752 13.1451 17.5419C13.8784 16.8086 14.8729 16.3967 15.9099 16.3967H12.4899C12.1982 16.4596 11.896 16.4565 11.6057 16.3875C11.3153 16.3185 11.0441 16.1854 10.8118 15.9979C10.5796 15.8105 10.3922 15.5734 10.2635 15.3041C10.1348 15.0348 10.0681 14.7402 10.0681 14.4417C10.0681 14.1432 10.1348 13.8486 10.2635 13.5793C10.3922 13.31 10.5796 13.0729 10.8118 12.8855C11.0441 12.698 11.3153 12.5649 11.6057 12.4959C11.896 12.4269 12.1982 12.4237 12.4899 12.4867H15.9399C16.7733 12.4837 17.586 12.7464 18.2599 13.2367C18.727 13.5551 19.1125 13.9791 19.3853 14.4742C19.658 14.9693 19.8104 15.5217 19.8299 16.0867C19.8299 19.1467 16.7399 23.2467 11.9999 23.2467C9.92328 23.2467 7.93169 22.4217 6.46328 20.9533C4.99487 19.4849 4.16992 17.4933 4.16992 15.4167V4.65669C4.26173 4.20458 4.50701 3.7981 4.86422 3.50614C5.22142 3.21418 5.66858 3.05469 6.12992 3.05469C6.59126 3.05469 7.03842 3.21418 7.39563 3.50614C7.75283 3.7981 7.99812 4.20458 8.08992 4.65669V9.54669" stroke="black" stroke-width="1.5" stroke-linecap="round" stroke-linejoin="round"/>
</g>
<defs>
<clipPath id="clip0_389_18242">
<rect width="24" height="24" fill="white"/>
</clipPath>
</defs>
</svg>
