<svg width="24" height="24" viewBox="0 0 24 24" fill="none" xmlns="http://www.w3.org/2000/svg">
<g clip-path="url(#clip0_389_18258)">
<path d="M4.04505 19.955C1.93526 17.8452 0.75 14.9837 0.75 12C0.75 9.01631 1.93526 6.15483 4.04505 4.04505C6.15483 1.93526 9.01631 0.75 12 0.75C14.9837 0.75 17.8452 1.93526 19.955 4.04505C22.0647 6.15483 23.25 9.01631 23.25 12C23.25 14.9837 22.0647 17.8452 19.955 19.955C17.8452 22.0647 14.9837 23.25 12 23.25C9.01631 23.25 6.15483 22.0647 4.04505 19.955Z" stroke="black" stroke-width="1.5" stroke-linecap="round" stroke-linejoin="round"/>
<path d="M10.5 13C10.5 13.7956 10.8161 14.5587 11.3787 15.1213C11.9413 15.6839 12.7044 16 13.5 16C14.2956 16 15.0587 15.6839 15.6213 15.1213C16.1839 14.5587 16.5 13.7956 16.5 13C16.5 12.2044 16.1839 11.4413 15.6213 10.8787C15.0587 10.3161 14.2956 10 13.5 10C12.7044 10 11.9413 10.3161 11.3787 10.8787C10.8161 11.4413 10.5 12.2044 10.5 13Z" stroke="black" stroke-width="1.5" stroke-linecap="round" stroke-linejoin="round"/>
<path d="M2.49512 6H21.5171" stroke="black" stroke-width="1.5" stroke-linecap="round" stroke-linejoin="round"/>
<path d="M3.2002 19H14.0002" stroke="black" stroke-width="1.5" stroke-linecap="round" stroke-linejoin="round"/>
<path d="M0.857422 10.5H7.50042" stroke="black" stroke-width="1.5" stroke-linecap="round" stroke-linejoin="round"/>
<path d="M19.5 13.5H23.15" stroke="black" stroke-width="1.5" stroke-linecap="round" stroke-linejoin="round"/>
</g>
<defs>
<clipPath id="clip0_389_18258">
<rect width="24" height="24" fill="white"/>
</clipPath>
</defs>
</svg>
