<svg width="24" height="24" viewBox="0 0 24 24" fill="none" xmlns="http://www.w3.org/2000/svg">
<g clip-path="url(#clip0_389_18284)">
<path d="M11.625 3.75C11.625 4.44619 11.9016 5.11387 12.3938 5.60616C12.8861 6.09844 13.5538 6.375 14.25 6.375C14.9462 6.375 15.6139 6.09844 16.1062 5.60616C16.5984 5.11387 16.875 4.44619 16.875 3.75C16.875 3.05381 16.5984 2.38613 16.1062 1.89384C15.6139 1.40156 14.9462 1.125 14.25 1.125C13.5538 1.125 12.8861 1.40156 12.3938 1.89384C11.9016 2.38613 11.625 3.05381 11.625 3.75Z" stroke="black" stroke-width="1.5" stroke-linecap="round" stroke-linejoin="round"/>
<path d="M22.3056 8.35558L20.0256 7.44258C19.3742 7.1841 18.6779 7.05789 17.9772 7.07128C17.2766 7.08467 16.5856 7.2374 15.9446 7.52058L11.7996 9.36358C11.6158 9.44428 11.4179 9.48778 11.2173 9.49156C11.0166 9.49533 10.8172 9.45931 10.6306 9.38558L8.05557 8.35558C7.87264 8.2825 7.6771 8.24616 7.48013 8.24865C7.28316 8.25114 7.0886 8.2924 6.90758 8.37007C6.54197 8.52695 6.25366 8.82263 6.10607 9.19208C5.95848 9.56152 5.96369 9.97447 6.12057 10.3401C6.27744 10.7057 6.57312 10.994 6.94257 11.1416L9.51757 12.1716C10.5532 12.5823 11.7039 12.5969 12.7496 12.2126V14.2486L10.9496 15.5976C10.5775 15.8778 10.2755 16.2404 10.0673 16.657C9.85911 17.0736 9.75034 17.5328 9.74957 17.9986V21.7486C9.74957 22.1464 9.90761 22.5279 10.1889 22.8092C10.4702 23.0905 10.8517 23.2486 11.2496 23.2486C11.6474 23.2486 12.0289 23.0905 12.3102 22.8092C12.5915 22.5279 12.7496 22.1464 12.7496 21.7486V17.9986L14.9996 16.3116V17.9986C14.9991 18.2706 15.0731 18.5376 15.2136 18.7706L17.4636 22.5206C17.5639 22.6915 17.6971 22.8409 17.8556 22.9601C18.014 23.0792 18.1945 23.1658 18.3865 23.2148C18.5786 23.2638 18.7785 23.2742 18.9747 23.2454C19.1708 23.2167 19.3593 23.1494 19.5292 23.0474C19.6992 22.9453 19.8472 22.8106 19.9648 22.651C20.0824 22.4914 20.1672 22.3101 20.2143 22.1176C20.2614 21.925 20.2698 21.725 20.2391 21.5292C20.2085 21.3333 20.1393 21.1455 20.0356 20.9766L17.9996 17.5826V10.0706C18.3113 10.059 18.6219 10.1128 18.9116 10.2286L21.1926 11.1416C21.3755 11.2147 21.571 11.251 21.768 11.2485C21.965 11.246 22.1595 11.2048 22.3406 11.1271C22.5216 11.0494 22.6855 10.9368 22.8231 10.7958C22.9606 10.6548 23.069 10.488 23.1421 10.3051C23.2152 10.1221 23.2515 9.92661 23.249 9.72964C23.2465 9.53267 23.2053 9.33811 23.1276 9.15708C23.0499 8.97606 22.9373 8.8121 22.7963 8.67458C22.6552 8.53705 22.4885 8.42866 22.3056 8.35558Z" stroke="black" stroke-width="1.5" stroke-linecap="round" stroke-linejoin="round"/>
<path d="M1.10653 4.57696C1.272 4.93449 1.48867 5.26407 1.74416 5.54689C1.99966 5.82971 2.28897 6.06023 2.59559 6.22529C2.90221 6.39035 3.22012 6.48671 3.53118 6.50887C3.84224 6.53103 4.14035 6.47856 4.4085 6.35445C4.67665 6.23035 4.90958 6.03704 5.09399 5.78556C5.2784 5.53408 5.41068 5.22935 5.48328 4.88879C5.55588 4.54822 5.56738 4.17847 5.51712 3.80067C5.46685 3.42286 5.35581 3.04439 5.19034 2.68686C5.02486 2.32933 4.80819 1.99974 4.5527 1.71692C4.29721 1.4341 4.00789 1.20358 3.70128 1.03852C3.39466 0.873467 3.07674 0.777108 2.76568 0.754946C2.45462 0.732784 2.15651 0.785254 1.88836 0.90936C1.62022 1.03347 1.38729 1.22678 1.20287 1.47826C1.01846 1.72974 0.886182 2.03446 0.813581 2.37503C0.740981 2.7156 0.729485 3.08534 0.779748 3.46315C0.830012 3.84095 0.941051 4.21943 1.10653 4.57696Z" stroke="black" stroke-width="1.5" stroke-linecap="round" stroke-linejoin="round"/>
<path d="M4.77344 6.125L6.44144 8.686" stroke="black" stroke-width="1.5" stroke-linecap="round" stroke-linejoin="round"/>
<path d="M0.75 13.5C0.75 13.8978 0.908035 14.2794 1.18934 14.5607C1.47064 14.842 1.85218 15 2.25 15C2.64782 15 3.02936 14.842 3.31066 14.5607C3.59196 14.2794 3.75 13.8978 3.75 13.5C3.75 13.1022 3.59196 12.7206 3.31066 12.4393C3.02936 12.158 2.64782 12 2.25 12C1.85218 12 1.47064 12.158 1.18934 12.4393C0.908035 12.7206 0.75 13.1022 0.75 13.5Z" stroke="black" stroke-width="1.5" stroke-linecap="round" stroke-linejoin="round"/>
</g>
<defs>
<clipPath id="clip0_389_18284">
<rect width="24" height="24" fill="white"/>
</clipPath>
</defs>
</svg>
