<svg width="24" height="24" viewBox="0 0 24 24" fill="none" xmlns="http://www.w3.org/2000/svg">
<g clip-path="url(#clip0_389_18253)">
<path d="M15.447 7.02042L14.5692 5.45997C14.0816 4.5822 13.0087 4.28954 12.131 4.77719C11.2532 5.26484 10.9606 6.33767 11.4483 7.21543L11.0581 6.43527C10.5705 5.5575 9.49772 5.26484 8.61995 5.75249C7.74219 6.24014 7.44959 7.31296 7.93724 8.19073L8.32736 8.97101L4.42617 1.94893C3.93853 1.07116 2.8657 0.778501 1.98793 1.26615C1.11017 1.7538 0.817582 2.82662 1.30522 3.70439L6.47429 13.0672C4.71876 14.0425 4.13358 16.1882 5.10888 17.9437C5.98665 19.5042 7.25453 20.6746 8.81501 21.4549L10.8631 22.4302C12.4236 23.2104 14.2766 23.1128 15.7396 22.3325L19.7383 20.0894C21.2012 19.3092 22.1765 18.0412 22.6642 16.4807C23.1518 14.9203 22.9568 13.2623 22.1765 11.7994L18.6655 5.36246C18.1778 4.4847 17.105 4.19204 16.2272 4.67969C15.3495 5.16733 14.9593 6.14265 15.447 7.02042Z" stroke="black" stroke-width="1.5" stroke-miterlimit="10" stroke-linecap="round" stroke-linejoin="round"/>
<path d="M6.47363 12.9688L7.74152 15.3095" stroke="black" stroke-width="1.5" stroke-miterlimit="10" stroke-linecap="round" stroke-linejoin="round"/>
<path d="M9.16683 10.4667L8.28906 8.90625" stroke="black" stroke-width="1.5" stroke-miterlimit="10" stroke-linecap="round" stroke-linejoin="round"/>
<path d="M12.2517 8.76987L11.418 7.16406" stroke="black" stroke-width="1.5" stroke-miterlimit="10" stroke-linecap="round" stroke-linejoin="round"/>
</g>
<defs>
<clipPath id="clip0_389_18253">
<rect width="24" height="24" fill="white"/>
</clipPath>
</defs>
</svg>
