<svg width="24" height="24" viewBox="0 0 24 24" fill="none" xmlns="http://www.w3.org/2000/svg">
<g clip-path="url(#clip0_387_18145)">
<path d="M9.40012 16.7411L16.7401 9.40109C17.5886 9.80638 18.5418 9.93882 19.4687 9.78022C20.3955 9.62162 21.2504 9.17975 21.9159 8.5154C22.5813 7.85105 23.0246 6.99684 23.1847 6.07026C23.3449 5.14368 23.214 4.19025 22.8101 3.34109L21.3801 4.76109C21.0963 5.04488 20.7114 5.2043 20.3101 5.2043C19.9088 5.2043 19.5239 5.04488 19.2401 4.76109C18.9563 4.47731 18.7969 4.09242 18.7969 3.69109C18.7969 3.28977 18.9563 2.90488 19.2401 2.62109L20.6601 1.19109C19.811 0.78721 18.8575 0.656334 17.931 0.816466C17.0044 0.976598 16.1502 1.41987 15.4858 2.08532C14.8215 2.75077 14.3796 3.60571 14.221 4.53255C14.0624 5.45939 14.1948 6.4126 14.6001 7.26109L7.26012 14.6011C6.41163 14.1958 5.45841 14.0634 4.53157 14.222C3.60473 14.3806 2.74979 14.8224 2.08434 15.4868C1.4189 16.1511 0.975622 17.0053 0.81549 17.9319C0.655358 18.8585 0.786234 19.8119 1.19012 20.6611L2.62012 19.2411C2.9039 18.9573 3.28879 18.7979 3.69012 18.7979C4.09145 18.7979 4.47634 18.9573 4.76012 19.2411C5.0439 19.5249 5.20333 19.9098 5.20333 20.3111C5.20333 20.7124 5.0439 21.0973 4.76012 21.3811L3.34012 22.8111C4.18927 23.215 5.14271 23.3459 6.06928 23.1857C6.99586 23.0256 7.85007 22.5823 8.51442 21.9169C9.17878 21.2514 9.62064 20.3965 9.77924 19.4696C9.93785 18.5428 9.8054 17.5896 9.40012 16.7411Z" stroke="black" stroke-width="1.5" stroke-linecap="round" stroke-linejoin="round"/>
<path d="M7.26012 9.40109C6.41163 9.80638 5.45841 9.93882 4.53157 9.78022C3.60473 9.62162 2.74979 9.17975 2.08434 8.5154C1.4189 7.85105 0.975622 6.99684 0.81549 6.07026C0.655358 5.14368 0.786234 4.19025 1.19012 3.34109L2.62012 4.76109C2.9039 5.04488 3.28879 5.2043 3.69012 5.2043C4.09145 5.2043 4.47634 5.04488 4.76012 4.76109C5.0439 4.47731 5.20333 4.09242 5.20333 3.69109C5.20333 3.28977 5.0439 2.90488 4.76012 2.62109L3.34012 1.19109C4.18927 0.78721 5.14271 0.656334 6.06928 0.816466C6.99586 0.976598 7.85007 1.41987 8.51442 2.08532C9.17878 2.75077 9.62064 3.60571 9.77924 4.53255C9.93785 5.45939 9.8054 6.4126 9.40012 7.26109" stroke="black" stroke-width="1.5" stroke-linecap="round" stroke-linejoin="round"/>
<path d="M16.7406 14.6006C17.5891 14.1953 18.5423 14.0628 19.4691 14.2214C20.396 14.38 21.2509 14.8219 21.9163 15.4863C22.5818 16.1506 23.0251 17.0048 23.1852 17.9314C23.3453 18.858 23.2145 19.8114 22.8106 20.6606L21.3806 19.2406C21.0968 18.9568 20.7119 18.7974 20.3106 18.7974C19.9092 18.7974 19.5244 18.9568 19.2406 19.2406C18.9568 19.5244 18.7974 19.9092 18.7974 20.3106C18.7974 20.7119 18.9568 21.0968 19.2406 21.3806L20.6606 22.8106C19.8114 23.2145 18.858 23.3453 17.9314 23.1852C17.0048 23.0251 16.1506 22.5818 15.4863 21.9163C14.8219 21.2509 14.38 20.396 14.2214 19.4691C14.0628 18.5423 14.1953 17.5891 14.6006 16.7406" stroke="black" stroke-width="1.5" stroke-linecap="round" stroke-linejoin="round"/>
</g>
<defs>
<clipPath id="clip0_387_18145">
<rect width="24" height="24" fill="white"/>
</clipPath>
</defs>
</svg>
