<svg preserveAspectRatio="none" width="100%" height="100%" overflow="visible" style="display: block;" viewBox="0 0 28 20.3636" fill="none" xmlns="http://www.w3.org/2000/svg">
<g id="viewmore-icon-A">
<path fill-rule="evenodd" clip-rule="evenodd" d="M19.0909 10.1818C19.0909 12.9934 16.8116 15.2727 14 15.2727C11.1884 15.2727 8.90909 12.9934 8.90909 10.1818C8.90909 7.37019 11.1884 5.09091 14 5.09091C16.8116 5.09091 19.0909 7.37019 19.0909 10.1818ZM16.5455 10.1818C16.5455 11.5876 15.4058 12.7273 14 12.7273C12.5942 12.7273 11.4545 11.5876 11.4545 10.1818C11.4545 8.776 12.5942 7.63636 14 7.63636C15.4058 7.63636 16.5455 8.776 16.5455 10.1818Z" fill="currentColor"/>
<path fill-rule="evenodd" clip-rule="evenodd" d="M14 0C9.74631 0 6.26959 2.12324 3.9067 4.31735C2.71833 5.42084 1.77899 6.57117 1.12853 7.54686C0.803918 8.03377 0.540528 8.49324 0.352847 8.89585C0.193032 9.23868 0 9.71927 0 10.1818C0 10.6444 0.193032 11.125 0.352847 11.4678C0.540528 11.8704 0.803918 12.3299 1.12853 12.8168C1.77899 13.7925 2.71833 14.9428 3.9067 16.0463C6.26959 18.2404 9.74631 20.3636 14 20.3636C18.2537 20.3636 21.7304 18.2404 24.0933 16.0463C25.2817 14.9428 26.221 13.7925 26.8715 12.8168C27.1961 12.3299 27.4595 11.8704 27.6472 11.4678C27.807 11.125 28 10.6444 28 10.1818C28 9.71927 27.807 9.23868 27.6472 8.89585C27.4595 8.49324 27.1961 8.03377 26.8715 7.54686C26.221 6.57117 25.2817 5.42084 24.0933 4.31735C21.7304 2.12324 18.2537 0 14 0ZM2.65994 10.3923C2.61624 10.2986 2.58835 10.2293 2.57075 10.1818C2.58835 10.1344 2.61624 10.0651 2.65994 9.97134C2.78049 9.71272 2.97449 9.3668 3.24647 8.95882C3.78919 8.14474 4.59985 7.14734 5.63876 6.18265C7.73041 4.2404 10.6173 2.54545 14 2.54545C17.3827 2.54545 20.2696 4.2404 22.3612 6.18265C23.4001 7.14734 24.2108 8.14474 24.7535 8.95882C25.0255 9.3668 25.2195 9.71272 25.3401 9.97134C25.3838 10.0651 25.4116 10.1344 25.4293 10.1818C25.4116 10.2293 25.3838 10.2986 25.3401 10.3923C25.2195 10.6509 25.0255 10.9968 24.7535 11.4048C24.2108 12.2189 23.4001 13.2163 22.3612 14.181C20.2696 16.1232 17.3827 17.8182 14 17.8182C10.6173 17.8182 7.73041 16.1232 5.63876 14.181C4.59985 13.2163 3.78919 12.2189 3.24647 11.4048C2.97449 10.9968 2.78049 10.6509 2.65994 10.3923Z" fill="currentColor"/>
</g>
</svg>
